<svg xmlns="http://www.w3.org/2000/svg" width="709.3148193359375" height="727.5792846679688" viewBox="-392.7748107910156 -361.6268615722656 709.3148193359375 727.5792846679688"><title>Neo4j Graph Visualization</title><desc>Created using Neo4j (http://www.neo4j.com/)</desc><g class="layer relationships"><g class="relationship" transform="translate(123.88787648017251 186.0050374375954) rotate(506.53294244871574)"><path class="b-outline" fill="#A5ABB6" stroke="none" d="M 25 0.5 L 52.01273853860562 0.5 L 52.01273853860562 -0.5 L 25 -0.5 Z M 99.79789478860562 0.5 L 126.81063332721124 0.5 L 126.81063332721124 3.5 L 133.81063332721124 0 L 126.81063332721124 -3.5 L 126.81063332721124 -0.5 L 99.79789478860562 -0.5 Z"/><text text-anchor="middle" pointer-events="none" font-size="8px" fill="#000000" x="75.90531666360562" y="3" transform="rotate(180 75.90531666360562 0)" font-family="Helvetica Neue, Helvetica, Arial, sans-serif">REQUIRES</text></g><g class="relationship" transform="translate(123.88787648017251 186.0050374375954) rotate(241.5688345372131)"><path class="b-outline" fill="#A5ABB6" stroke="none" d="M 25 0.5 L 98.61746494221545 0.5 L 98.61746494221545 -0.5 L 25 -0.5 Z M 129.96512119221546 0.5 L 203.5825861344309 0.5 L 203.5825861344309 3.5 L 210.5825861344309 0 L 203.5825861344309 -3.5 L 203.5825861344309 -0.5 L 129.96512119221546 -0.5 Z"/><text text-anchor="middle" pointer-events="none" font-size="8px" fill="#000000" x="114.29129306721545" y="3" transform="rotate(180 114.29129306721545 0)" font-family="Helvetica Neue, Helvetica, Arial, sans-serif">CALLS</text></g><g class="relationship" transform="translate(123.88787648017251 186.0050374375954) rotate(433.72106348516695)"><path class="b-outline" fill="#A5ABB6" stroke="none" d="M 25 0.5 L 59.452074622713056 0.5 L 59.452074622713056 -0.5 L 25 -0.5 Z M 90.79973087271306 0.5 L 125.25180549542611 0.5 L 125.25180549542611 3.5 L 132.2518054954261 0 L 125.25180549542611 -3.5 L 125.25180549542611 -0.5 L 90.79973087271306 -0.5 Z"/><text text-anchor="middle" pointer-events="none" font-size="8px" fill="#000000" x="75.12590274771306" y="3" font-family="Helvetica Neue, Helvetica, Arial, sans-serif">CALLS</text></g><g class="relationship" transform="translate(123.88787648017251 186.0050374375954) rotate(470.25961225131704)"><path class="b-outline" fill="#A5ABB6" stroke="none" d="M 25 0.5 L 60.51070433437735 0.5 L 60.51070433437735 -0.5 L 25 -0.5 Z M 91.85836058437735 0.5 L 127.3690649187547 0.5 L 127.3690649187547 3.5 L 134.3690649187547 0 L 127.3690649187547 -3.5 L 127.3690649187547 -0.5 L 91.85836058437735 -0.5 Z"/><text text-anchor="middle" pointer-events="none" font-size="8px" fill="#000000" x="76.18453245937735" y="3" transform="rotate(180 76.18453245937735 0)" font-family="Helvetica Neue, Helvetica, Arial, sans-serif">CALLS</text></g><g class="relationship" transform="translate(123.88787648017251 186.0050374375954) rotate(396.9906418299136)"><path class="b-outline" fill="#A5ABB6" stroke="none" d="M 25 0.5 L 59.30557453731083 0.5 L 59.30557453731083 -0.5 L 25 -0.5 Z M 90.65323078731083 0.5 L 124.95880532462166 0.5 L 124.95880532462166 3.5 L 131.95880532462166 0 L 124.95880532462166 -3.5 L 124.95880532462166 -0.5 L 90.65323078731083 -0.5 Z"/><text text-anchor="middle" pointer-events="none" font-size="8px" fill="#000000" x="74.97940266231083" y="3" font-family="Helvetica Neue, Helvetica, Arial, sans-serif">CALLS</text></g><g class="relationship" transform="translate(123.88787648017251 186.0050374375954) rotate(360.154036937068)"><path class="b-outline" fill="#A5ABB6" stroke="none" d="M 25 0.5 L 59.60084055066861 0.5 L 59.60084055066861 -0.5 L 25 -0.5 Z M 90.94849680066861 0.5 L 125.54933735133721 0.5 L 125.54933735133721 3.5 L 132.54933735133721 0 L 125.54933735133721 -3.5 L 125.54933735133721 -0.5 L 90.94849680066861 -0.5 Z"/><text text-anchor="middle" pointer-events="none" font-size="8px" fill="#000000" x="75.27466867566861" y="3" font-family="Helvetica Neue, Helvetica, Arial, sans-serif">CALLS</text></g><g class="relationship" transform="translate(123.88787648017251 186.0050374375954) rotate(183.92632447820705)"><path class="b-outline" fill="#A5ABB6" stroke="none" d="M 25 0.5 L 40.960154824093266 0.5 L 40.960154824093266 -0.5 L 25 -0.5 Z M 101.93671732409327 0.5 L 117.89687214818653 0.5 L 117.89687214818653 3.5 L 124.89687214818653 0 L 117.89687214818653 -3.5 L 117.89687214818653 -0.5 L 101.93671732409327 -0.5 Z"/><text text-anchor="middle" pointer-events="none" font-size="8px" fill="#000000" x="71.44843607409327" y="3" transform="rotate(180 71.44843607409327 0)" font-family="Helvetica Neue, Helvetica, Arial, sans-serif">DEFINES_VAR</text></g><g class="relationship" transform="translate(123.88787648017251 186.0050374375954) rotate(323.0746241765032)"><path class="b-outline" fill="#A5ABB6" stroke="none" d="M 25 0.5 L 43.65769568086438 0.5 L 43.65769568086438 -0.5 L 25 -0.5 Z M 104.63425818086438 0.5 L 123.29195386172876 0.5 L 123.29195386172876 3.5 L 130.29195386172876 0 L 123.29195386172876 -3.5 L 123.29195386172876 -0.5 L 104.63425818086438 -0.5 Z"/><text text-anchor="middle" pointer-events="none" font-size="8px" fill="#000000" x="74.14597693086438" y="3" font-family="Helvetica Neue, Helvetica, Arial, sans-serif">DEFINES_VAR</text></g><g class="relationship" transform="translate(123.88787648017251 186.0050374375954) rotate(284.7303971535173)"><path class="b-outline" fill="#A5ABB6" stroke="none" d="M 25 0.5 L 39.754204044771726 0.5 L 39.754204044771726 -0.5 L 25 -0.5 Z M 100.73076654477173 0.5 L 115.48497058954345 0.5 L 115.48497058954345 3.5 L 122.48497058954345 0 L 115.48497058954345 -3.5 L 115.48497058954345 -0.5 L 100.73076654477173 -0.5 Z"/><text text-anchor="middle" pointer-events="none" font-size="8px" fill="#000000" x="70.24248529477173" y="3" font-family="Helvetica Neue, Helvetica, Arial, sans-serif">DEFINES_VAR</text></g><g class="relationship" transform="translate(123.88787648017251 186.0050374375954) rotate(223.9251514435877)"><path class="b-outline" fill="#A5ABB6" stroke="none" d="M 25 0.5 L 36.509453357231806 0.5 L 36.509453357231806 -0.5 L 25 -0.5 Z M 97.4860158572318 0.5 L 108.99546921446361 0.5 L 108.99546921446361 3.5 L 115.99546921446361 0 L 108.99546921446361 -3.5 L 108.99546921446361 -0.5 L 97.4860158572318 -0.5 Z"/><text text-anchor="middle" pointer-events="none" font-size="8px" fill="#000000" x="66.9977346072318" y="3" transform="rotate(180 66.9977346072318 0)" font-family="Helvetica Neue, Helvetica, Arial, sans-serif">DEFINES_VAR</text></g><g class="relationship" transform="translate(136.6629695214048 -182.59370268527866) rotate(356.3746524515002)"><path class="b-outline" fill="#A5ABB6" stroke="none" d="M 25 0.5 L 48.197197269706365 0.5 L 48.197197269706365 -0.5 L 25 -0.5 Z M 95.98235351970636 0.5 L 119.17955078941273 0.5 L 119.17955078941273 3.5 L 126.17955078941273 0 L 119.17955078941273 -3.5 L 119.17955078941273 -0.5 L 95.98235351970636 -0.5 Z"/><text text-anchor="middle" pointer-events="none" font-size="8px" fill="#000000" x="72.08977539470636" y="3" font-family="Helvetica Neue, Helvetica, Arial, sans-serif">REQUIRES</text></g><g class="relationship" transform="translate(136.6629695214048 -182.59370268527866) rotate(487.7376265022603)"><path class="b-outline" fill="#A5ABB6" stroke="none" d="M 25 0.5 L 82.89078320019762 0.5 L 82.89078320019762 -0.5 L 25 -0.5 Z M 114.23843945019762 0.5 L 172.12922265039523 0.5 L 172.12922265039523 3.5 L 179.12922265039523 0 L 172.12922265039523 -3.5 L 172.12922265039523 -0.5 L 114.23843945019762 -0.5 Z"/><text text-anchor="middle" pointer-events="none" font-size="8px" fill="#000000" x="98.56461132519762" y="3" transform="rotate(180 98.56461132519762 0)" font-family="Helvetica Neue, Helvetica, Arial, sans-serif">CALLS</text></g><g class="relationship" transform="translate(136.6629695214048 -182.59370268527866) rotate(316.90809420739583)"><path class="b-outline" fill="#A5ABB6" stroke="none" d="M 25 0.5 L 56.415734351287824 0.5 L 56.415734351287824 -0.5 L 25 -0.5 Z M 87.76339060128782 0.5 L 119.17912495257565 0.5 L 119.17912495257565 3.5 L 126.17912495257565 0 L 119.17912495257565 -3.5 L 119.17912495257565 -0.5 L 87.76339060128782 -0.5 Z"/><text text-anchor="middle" pointer-events="none" font-size="8px" fill="#000000" x="72.08956247628782" y="3" font-family="Helvetica Neue, Helvetica, Arial, sans-serif">CALLS</text></g><g class="relationship" transform="translate(136.6629695214048 -182.59370268527866) rotate(278.4557528457703)"><path class="b-outline" fill="#A5ABB6" stroke="none" d="M 25 0.5 L 41.85270376195854 0.5 L 41.85270376195854 -0.5 L 25 -0.5 Z M 102.82926626195854 0.5 L 119.68197002391707 0.5 L 119.68197002391707 3.5 L 126.68197002391707 0 L 119.68197002391707 -3.5 L 119.68197002391707 -0.5 L 102.82926626195854 -0.5 Z"/><text text-anchor="middle" pointer-events="none" font-size="8px" fill="#000000" x="72.34098501195854" y="3" font-family="Helvetica Neue, Helvetica, Arial, sans-serif">DEFINES_VAR</text></g><g class="relationship" transform="translate(136.6629695214048 -182.59370268527866) rotate(239.87660541028754)"><path class="b-outline" fill="#A5ABB6" stroke="none" d="M 25 0.5 L 41.14616334350971 0.5 L 41.14616334350971 -0.5 L 25 -0.5 Z M 102.12272584350971 0.5 L 118.26888918701943 0.5 L 118.26888918701943 3.5 L 125.26888918701943 0 L 118.26888918701943 -3.5 L 118.26888918701943 -0.5 L 102.12272584350971 -0.5 Z"/><text text-anchor="middle" pointer-events="none" font-size="8px" fill="#000000" x="71.63444459350971" y="3" transform="rotate(180 71.63444459350971 0)" font-family="Helvetica Neue, Helvetica, Arial, sans-serif">DEFINES_VAR</text></g><g class="relationship" transform="translate(-205.26587664065403 -84.44808769904529) rotate(252.35188335601254)"><path class="b-outline" fill="#A5ABB6" stroke="none" d="M 25 0.5 L 51.127426733601865 0.5 L 51.127426733601865 -0.5 L 25 -0.5 Z M 98.91258298360187 0.5 L 125.04000971720373 0.5 L 125.04000971720373 3.5 L 132.04000971720373 0 L 125.04000971720373 -3.5 L 125.04000971720373 -0.5 L 98.91258298360187 -0.5 Z"/><text text-anchor="middle" pointer-events="none" font-size="8px" fill="#000000" x="75.02000485860187" y="3" transform="rotate(180 75.02000485860187 0)" font-family="Helvetica Neue, Helvetica, Arial, sans-serif">REQUIRES</text></g><g class="relationship" transform="translate(-205.26587664065403 -84.44808769904529) rotate(289.4637758894248)"><path class="b-outline" fill="#A5ABB6" stroke="none" d="M 25 0.5 L 50.01471677976201 0.5 L 50.01471677976201 -0.5 L 25 -0.5 Z M 97.79987302976201 0.5 L 122.81458980952402 0.5 L 122.81458980952402 3.5 L 129.81458980952402 0 L 122.81458980952402 -3.5 L 122.81458980952402 -0.5 L 97.79987302976201 -0.5 Z"/><text text-anchor="middle" pointer-events="none" font-size="8px" fill="#000000" x="73.90729490476201" y="3" font-family="Helvetica Neue, Helvetica, Arial, sans-serif">REQUIRES</text></g><g class="relationship" transform="translate(-205.26587664065403 -84.44808769904529) rotate(215.65178012367363)"><path class="b-outline" fill="#A5ABB6" stroke="none" d="M 25 0.5 L 51.45258236112166 0.5 L 51.45258236112166 -0.5 L 25 -0.5 Z M 99.23773861112166 0.5 L 125.69032097224331 0.5 L 125.69032097224331 3.5 L 132.6903209722433 0 L 125.69032097224331 -3.5 L 125.69032097224331 -0.5 L 99.23773861112166 -0.5 Z"/><text text-anchor="middle" pointer-events="none" font-size="8px" fill="#000000" x="75.34516048612166" y="3" transform="rotate(180 75.34516048612166 0)" font-family="Helvetica Neue, Helvetica, Arial, sans-serif">REQUIRES</text></g><g class="relationship" transform="translate(-205.26587664065403 -84.44808769904529) rotate(539.0531117632697)"><path class="b-outline" fill="#A5ABB6" stroke="none" d="M 25 0.5 L 51.87269897381218 0.5 L 51.87269897381218 -0.5 L 25 -0.5 Z M 99.65785522381218 0.5 L 126.53055419762435 0.5 L 126.53055419762435 3.5 L 133.53055419762435 0 L 126.53055419762435 -3.5 L 126.53055419762435 -0.5 L 99.65785522381218 -0.5 Z"/><text text-anchor="middle" pointer-events="none" font-size="8px" fill="#000000" x="75.76527709881218" y="3" transform="rotate(180 75.76527709881218 0)" font-family="Helvetica Neue, Helvetica, Arial, sans-serif">REQUIRES</text></g><g class="relationship" transform="translate(-205.26587664065403 -84.44808769904529) rotate(427.2707868955672)"><path class="b-outline" fill="#A5ABB6" stroke="none" d="M 25 0.5 L 44.51157496289177 0.5 L 44.51157496289177 -0.5 L 25 -0.5 Z M 92.29673121289177 0.5 L 111.80830617578354 0.5 L 111.80830617578354 3.5 L 118.80830617578354 0 L 111.80830617578354 -3.5 L 111.80830617578354 -0.5 L 92.29673121289177 -0.5 Z"/><text text-anchor="middle" pointer-events="none" font-size="8px" fill="#000000" x="68.40415308789177" y="3" font-family="Helvetica Neue, Helvetica, Arial, sans-serif">REQUIRES</text></g><g class="relationship" transform="translate(-205.26587664065403 -84.44808769904529) rotate(376.2589408789346)"><path class="b-outline" fill="#A5ABB6" stroke="none" d="M 25 0.5 L 93.84225099745427 0.5 L 93.84225099745427 -0.5 L 25 -0.5 Z M 125.18990724745427 0.5 L 194.03215824490854 0.5 L 194.03215824490854 3.5 L 201.03215824490854 0 L 194.03215824490854 -3.5 L 194.03215824490854 -0.5 L 125.18990724745427 -0.5 Z"/><text text-anchor="middle" pointer-events="none" font-size="8px" fill="#000000" x="109.51607912245427" y="3" font-family="Helvetica Neue, Helvetica, Arial, sans-serif">CALLS</text></g><g class="relationship" transform="translate(-205.26587664065403 -84.44808769904529) rotate(502.59749742478283)"><path class="b-outline" fill="#A5ABB6" stroke="none" d="M 25 0.5 L 60.321023285731215 0.5 L 60.321023285731215 -0.5 L 25 -0.5 Z M 91.66867953573121 0.5 L 126.98970282146243 0.5 L 126.98970282146243 3.5 L 133.98970282146243 0 L 126.98970282146243 -3.5 L 126.98970282146243 -0.5 L 91.66867953573121 -0.5 Z"/><text text-anchor="middle" pointer-events="none" font-size="8px" fill="#000000" x="75.99485141073121" y="3" transform="rotate(180 75.99485141073121 0)" font-family="Helvetica Neue, Helvetica, Arial, sans-serif">CALLS</text></g><g class="relationship" transform="translate(-205.26587664065403 -84.44808769904529) rotate(465.75020062067665)"><path class="b-outline" fill="#A5ABB6" stroke="none" d="M 25 0.5 L 58.83857267239573 0.5 L 58.83857267239573 -0.5 L 25 -0.5 Z M 90.18622892239573 0.5 L 124.02480159479146 0.5 L 124.02480159479146 3.5 L 131.02480159479146 0 L 124.02480159479146 -3.5 L 124.02480159479146 -0.5 L 90.18622892239573 -0.5 Z"/><text text-anchor="middle" pointer-events="none" font-size="8px" fill="#000000" x="74.51240079739573" y="3" transform="rotate(180 74.51240079739573 0)" font-family="Helvetica Neue, Helvetica, Arial, sans-serif">CALLS</text></g><g class="relationship" transform="translate(-205.26587664065403 -84.44808769904529) rotate(328.0613021622129)"><path class="b-outline" fill="#A5ABB6" stroke="none" d="M 25 0.5 L 53.75568022942005 0.5 L 53.75568022942005 -0.5 L 25 -0.5 Z M 85.10333647942005 0.5 L 113.8590167088401 0.5 L 113.8590167088401 3.5 L 120.8590167088401 0 L 113.8590167088401 -3.5 L 113.8590167088401 -0.5 L 85.10333647942005 -0.5 Z"/><text text-anchor="middle" pointer-events="none" font-size="8px" fill="#000000" x="69.42950835442005" y="3" font-family="Helvetica Neue, Helvetica, Arial, sans-serif">CALLS</text></g></g><g class="layer nodes"><g class="node" aria-label="graph-node0" transform="translate(123.88787648017251,186.0050374375954)" style="touch-action: none; -webkit-tap-highlight-color: rgba(0, 0, 0, 0);"><circle class="b-outline" cx="0" cy="0" r="25" fill="#C990C0" stroke="#b261a5" stroke-width="2px"/><text class="caption" text-anchor="middle" pointer-events="none" x="0" y="5" font-size="10px" fill="#FFFFFF" font-family="Helvetica Neue, Helvetica, Arial, sans-serif"> Keploy.t…</text></g><g class="node" aria-label="graph-node1" transform="translate(-8.59243387897082,273.5823440011967)" style="touch-action: none; -webkit-tap-highlight-color: rgba(0, 0, 0, 0);"><circle class="b-outline" cx="0" cy="0" r="25" fill="#F79767" stroke="#f36924" stroke-width="2px"/><text class="caption" text-anchor="middle" pointer-events="none" x="0" y="5" font-size="10px" fill="#FFFFFF" font-family="Helvetica Neue, Helvetica, Arial, sans-serif"> @keploy…</text></g><g class="node" aria-label="graph-node2" transform="translate(11.72639124950202,-21.163869787008725)" style="touch-action: none; -webkit-tap-highlight-color: rgba(0, 0, 0, 0);"><circle class="b-outline" cx="0" cy="0" r="25" fill="#57C7E3" stroke="#23b3d7" stroke-width="2px"/><text class="caption" text-anchor="middle" pointer-events="none" x="0" y="5" font-size="10px" fill="#2A2C34" font-family="Helvetica Neue, Helvetica, Arial, sans-serif"> require</text></g><g class="node" aria-label="graph-node3" transform="translate(167.96773384081638,336.95236767777095)" style="touch-action: none; -webkit-tap-highlight-color: rgba(0, 0, 0, 0);"><circle class="b-outline" cx="0" cy="0" r="25" fill="#57C7E3" stroke="#23b3d7" stroke-width="2px"/><text class="caption" text-anchor="middle" pointer-events="none" x="0" y="5" font-size="10px" fill="#2A2C34" font-family="Helvetica Neue, Helvetica, Arial, sans-serif"> done</text></g><g class="node" aria-label="graph-node4" transform="translate(68.70244145211085,335.5144572540131)" style="touch-action: none; -webkit-tap-highlight-color: rgba(0, 0, 0, 0);"><circle class="b-outline" cx="0" cy="0" r="25" fill="#57C7E3" stroke="#23b3d7" stroke-width="2px"/><text class="caption" text-anchor="middle" pointer-events="none" x="0" y="5" font-size="10px" fill="#2A2C34" font-family="Helvetica Neue, Helvetica, Arial, sans-serif"> test</text></g><g class="node" aria-label="graph-node5" transform="translate(249.256178617137,280.44472924261595)" style="touch-action: none; -webkit-tap-highlight-color: rgba(0, 0, 0, 0);"><circle class="b-outline" cx="0" cy="0" r="25" fill="#57C7E3" stroke="#23b3d7" stroke-width="2px"/><text class="caption" text-anchor="middle" pointer-events="none" x="0" y="5" font-size="10px" fill="#2A2C34" font-family="Helvetica Neue, Helvetica, Arial, sans-serif"> describe</text></g><g class="node" aria-label="graph-node6" transform="translate(281.4366444664562,186.4286007145857)" style="touch-action: none; -webkit-tap-highlight-color: rgba(0, 0, 0, 0);"><circle class="b-outline" cx="0" cy="0" r="25" fill="#57C7E3" stroke="#23b3d7" stroke-width="2px"/><text class="caption" text-anchor="middle" pointer-events="none" x="0" y="5" font-size="10px" fill="#2A2C34" font-family="Helvetica Neue, Helvetica, Arial, sans-serif"> expect</text></g><g class="node" aria-label="graph-node7" transform="translate(-25.657176315356967,175.7410487298813)" style="touch-action: none; -webkit-tap-highlight-color: rgba(0, 0, 0, 0);"><circle class="b-outline" cx="0" cy="0" r="25" fill="#F16667" stroke="#eb2728" stroke-width="2px"/><text class="caption" text-anchor="middle" pointer-events="none" x="0" y="5" font-size="10px" fill="#FFFFFF" font-family="Helvetica Neue, Helvetica, Arial, sans-serif"> keploy</text></g><g class="node" aria-label="graph-node8" transform="translate(248.0311619818778,92.70961633325943)" style="touch-action: none; -webkit-tap-highlight-color: rgba(0, 0, 0, 0);"><circle class="b-outline" cx="0" cy="0" r="25" fill="#F16667" stroke="#eb2728" stroke-width="2px"/><text class="caption" text-anchor="middle" pointer-events="none" x="0" y="5" font-size="10px" fill="#FFFFFF" font-family="Helvetica Neue, Helvetica, Arial, sans-serif"> options</text></g><g class="node" aria-label="graph-node9" transform="translate(161.38903832259965,43.367456799579166)" style="touch-action: none; -webkit-tap-highlight-color: rgba(0, 0, 0, 0);"><circle class="b-outline" cx="0" cy="0" r="25" fill="#F16667" stroke="#eb2728" stroke-width="2px"/><text class="caption" text-anchor="middle" pointer-events="none" x="0" y="5" font-size="10px" fill="#FFFFFF" font-family="Helvetica Neue, Helvetica, Arial, sans-serif"> cmd</text></g><g class="node" aria-label="graph-node10" transform="translate(22.33636128854185,88.1939332556531)" style="touch-action: none; -webkit-tap-highlight-color: rgba(0, 0, 0, 0);"><circle class="b-outline" cx="0" cy="0" r="25" fill="#F16667" stroke="#eb2728" stroke-width="2px"/><text class="caption" text-anchor="middle" pointer-events="none" x="0" y="5" font-size="10px" fill="#FFFFFF" font-family="Helvetica Neue, Helvetica, Arial, sans-serif"> timeOut</text></g><g class="node" aria-label="graph-node11" transform="translate(136.6629695214048,-182.59370268527866)" style="touch-action: none; -webkit-tap-highlight-color: rgba(0, 0, 0, 0);"><circle class="b-outline" cx="0" cy="0" r="25" fill="#C990C0" stroke="#b261a5" stroke-width="2px"/><text class="caption" text-anchor="middle" pointer-events="none" x="0" y="5" font-size="10px" fill="#FFFFFF" font-family="Helvetica Neue, Helvetica, Arial, sans-serif"> server.js</text></g><g class="node" aria-label="graph-node12" transform="translate(287.53998770844004,-192.15309387288374)" style="touch-action: none; -webkit-tap-highlight-color: rgba(0, 0, 0, 0);"><circle class="b-outline" cx="0" cy="0" r="25" fill="#F79767" stroke="#f36924" stroke-width="2px"/><text class="caption" text-anchor="middle" pointer-events="none" x="0" y="5" font-size="10px" fill="#FFFFFF" font-family="Helvetica Neue, Helvetica, Arial, sans-serif"> ./app</text></g><g class="node" aria-label="graph-node13" transform="translate(247.06285526079637,-285.87483866932837)" style="touch-action: none; -webkit-tap-highlight-color: rgba(0, 0, 0, 0);"><circle class="b-outline" cx="0" cy="0" r="25" fill="#57C7E3" stroke="#23b3d7" stroke-width="2px"/><text class="caption" text-anchor="middle" pointer-events="none" x="0" y="5" font-size="10px" fill="#2A2C34" font-family="Helvetica Neue, Helvetica, Arial, sans-serif"> app.listen</text></g><g class="node" aria-label="graph-node14" transform="translate(158.96713447753154,-332.6268465433821)" style="touch-action: none; -webkit-tap-highlight-color: rgba(0, 0, 0, 0);"><circle class="b-outline" cx="0" cy="0" r="25" fill="#F16667" stroke="#eb2728" stroke-width="2px"/><text class="caption" text-anchor="middle" pointer-events="none" x="0" y="5" font-size="10px" fill="#FFFFFF" font-family="Helvetica Neue, Helvetica, Arial, sans-serif"> app</text></g><g class="node" aria-label="graph-node15" transform="translate(61.248431594780286,-312.5682637609539)" style="touch-action: none; -webkit-tap-highlight-color: rgba(0, 0, 0, 0);"><circle class="b-outline" cx="0" cy="0" r="25" fill="#F16667" stroke="#eb2728" stroke-width="2px"/><text class="caption" text-anchor="middle" pointer-events="none" x="0" y="5" font-size="10px" fill="#FFFFFF" font-family="Helvetica Neue, Helvetica, Arial, sans-serif"> PORT</text></g><g class="node" aria-label="graph-node16" transform="translate(-205.26587664065403,-84.44808769904529)" style="touch-action: none; -webkit-tap-highlight-color: rgba(0, 0, 0, 0);"><circle class="b-outline" cx="0" cy="0" r="25" fill="#C990C0" stroke="#b261a5" stroke-width="2px"/><text class="caption" text-anchor="middle" pointer-events="none" x="0" y="5" font-size="10px" fill="#FFFFFF" font-family="Helvetica Neue, Helvetica, Arial, sans-serif"> app.js</text></g><g class="node" aria-label="graph-node17" transform="translate(-252.8757384270624,-234.09722973687502)" style="touch-action: none; -webkit-tap-highlight-color: rgba(0, 0, 0, 0);"><circle class="b-outline" cx="0" cy="0" r="25" fill="#F79767" stroke="#f36924" stroke-width="2px"/><text class="caption" text-anchor="middle" pointer-events="none" x="0" y="5" font-size="10px" fill="#FFFFFF" font-family="Helvetica Neue, Helvetica, Arial, sans-serif"> mongoose</text></g><g class="node" aria-label="graph-node18" transform="translate(-153.6799792420431,-230.41538680220455)" style="touch-action: none; -webkit-tap-highlight-color: rgba(0, 0, 0, 0);"><circle class="b-outline" cx="0" cy="0" r="25" fill="#F79767" stroke="#f36924" stroke-width="2px"/><text class="caption" text-anchor="middle" pointer-events="none" x="0" y="5" font-size="10px" fill="#FFFFFF" font-family="Helvetica Neue, Helvetica, Arial, sans-serif"> ./db/con…</text></g><g class="node" aria-label="graph-node19" transform="translate(-333.400985911391,-176.35908323551752)" style="touch-action: none; -webkit-tap-highlight-color: rgba(0, 0, 0, 0);"><circle class="b-outline" cx="0" cy="0" r="25" fill="#F79767" stroke="#f36924" stroke-width="2px"/><text class="caption" text-anchor="middle" pointer-events="none" x="0" y="5" font-size="10px" fill="#FFFFFF" font-family="Helvetica Neue, Helvetica, Arial, sans-serif"> ./models…</text></g><g class="node" aria-label="graph-node20" transform="translate(-363.77478246461686,-81.82828070310202)" style="touch-action: none; -webkit-tap-highlight-color: rgba(0, 0, 0, 0);"><circle class="b-outline" cx="0" cy="0" r="25" fill="#F79767" stroke="#f36924" stroke-width="2px"/><text class="caption" text-anchor="middle" pointer-events="none" x="0" y="5" font-size="10px" fill="#FFFFFF" font-family="Helvetica Neue, Helvetica, Arial, sans-serif"> ./routes/…</text></g><g class="node" aria-label="graph-node21" transform="translate(-149.7017464902321,48.1922393729839)" style="touch-action: none; -webkit-tap-highlight-color: rgba(0, 0, 0, 0);"><circle class="b-outline" cx="0" cy="0" r="25" fill="#F79767" stroke="#f36924" stroke-width="2px"/><text class="caption" text-anchor="middle" pointer-events="none" x="0" y="5" font-size="10px" fill="#FFFFFF" font-family="Helvetica Neue, Helvetica, Arial, sans-serif"> express</text></g><g class="node" aria-label="graph-node22" transform="translate(-331.5654031072303,12.123933184725947)" style="touch-action: none; -webkit-tap-highlight-color: rgba(0, 0, 0, 0);"><circle class="b-outline" cx="0" cy="0" r="25" fill="#57C7E3" stroke="#23b3d7" stroke-width="2px"/><text class="caption" text-anchor="middle" pointer-events="none" x="0" y="5" font-size="10px" fill="#2A2C34" font-family="Helvetica Neue, Helvetica, Arial, sans-serif"> express</text></g><g class="node" aria-label="graph-node23" transform="translate(-247.61784478345126,65.71865131837338)" style="touch-action: none; -webkit-tap-highlight-color: rgba(0, 0, 0, 0);"><circle class="b-outline" cx="0" cy="0" r="25" fill="#57C7E3" stroke="#23b3d7" stroke-width="2px"/><text class="caption" text-anchor="middle" pointer-events="none" x="0" y="5" font-size="10px" fill="#2A2C34" font-family="Helvetica Neue, Helvetica, Arial, sans-serif"> app.use</text></g><g class="node" aria-label="graph-node24" transform="translate(-81.48778781102577,-161.60920148671912)" style="touch-action: none; -webkit-tap-highlight-color: rgba(0, 0, 0, 0);"><circle class="b-outline" cx="0" cy="0" r="25" fill="#57C7E3" stroke="#23b3d7" stroke-width="2px"/><text class="caption" text-anchor="middle" pointer-events="none" x="0" y="5" font-size="10px" fill="#2A2C34" font-family="Helvetica Neue, Helvetica, Arial, sans-serif"> express.…</text></g></g></svg>