<svg xmlns="http://www.w3.org/2000/svg" width="778.24169921875" height="881.5974731445312" viewBox="-401.159912109375 -343.32159423828125 778.24169921875 881.5974731445312"><title>Neo4j Graph Visualization</title><desc>Created using Neo4j (http://www.neo4j.com/)</desc><g class="layer relationships"><g class="relationship" transform="translate(38.435306127881155 197.28488100757076) rotate(260.2545111441085)"><path class="b-outline" fill="#A5ABB6" stroke="none" d="M 25 0.5 L 82.39455955837909 0.5 L 82.39455955837909 -0.5 L 25 -0.5 Z M 113.74221580837909 0.5 L 171.13677536675817 0.5 L 171.13677536675817 3.5 L 178.13677536675817 0 L 171.13677536675817 -3.5 L 171.13677536675817 -0.5 L 113.74221580837909 -0.5 Z"/><text text-anchor="middle" pointer-events="none" font-size="8px" fill="#000000" x="98.06838768337909" y="3" transform="rotate(180 98.06838768337909 0)" font-family="Helvetica Neue, Helvetica, Arial, sans-serif">CALLS</text></g><g class="relationship" transform="translate(38.435306127881155 197.28488100757076) rotate(474.5491669258072)"><path class="b-outline" fill="#A5ABB6" stroke="none" d="M 25 0.5 L 54.50840788952742 0.5 L 54.50840788952742 -0.5 L 25 -0.5 Z M 85.85606413952742 0.5 L 115.36447202905484 0.5 L 115.36447202905484 3.5 L 122.36447202905484 0 L 115.36447202905484 -3.5 L 115.36447202905484 -0.5 L 85.85606413952742 -0.5 Z"/><text text-anchor="middle" pointer-events="none" font-size="8px" fill="#000000" x="70.18223601452742" y="3" transform="rotate(180 70.18223601452742 0)" font-family="Helvetica Neue, Helvetica, Arial, sans-serif">CALLS</text></g><g class="relationship" transform="translate(38.435306127881155 197.28488100757076) rotate(435.6864579995392)"><path class="b-outline" fill="#A5ABB6" stroke="none" d="M 25 0.5 L 56.84152151918366 0.5 L 56.84152151918366 -0.5 L 25 -0.5 Z M 88.18917776918366 0.5 L 120.03069928836732 0.5 L 120.03069928836732 3.5 L 127.03069928836732 0 L 120.03069928836732 -3.5 L 120.03069928836732 -0.5 L 88.18917776918366 -0.5 Z"/><text text-anchor="middle" pointer-events="none" font-size="8px" fill="#000000" x="72.51534964418366" y="3" font-family="Helvetica Neue, Helvetica, Arial, sans-serif">CALLS</text></g><g class="relationship" transform="translate(38.435306127881155 197.28488100757076) rotate(397.71605908620444)"><path class="b-outline" fill="#A5ABB6" stroke="none" d="M 25 0.5 L 57.927496963810384 0.5 L 57.927496963810384 -0.5 L 25 -0.5 Z M 89.27515321381038 0.5 L 122.20265017762077 0.5 L 122.20265017762077 3.5 L 129.20265017762077 0 L 122.20265017762077 -3.5 L 122.20265017762077 -0.5 L 89.27515321381038 -0.5 Z"/><text text-anchor="middle" pointer-events="none" font-size="8px" fill="#000000" x="73.60132508881038" y="3" font-family="Helvetica Neue, Helvetica, Arial, sans-serif">CALLS</text></g><g class="relationship" transform="translate(38.435306127881155 197.28488100757076) rotate(359.24270755116845)"><path class="b-outline" fill="#A5ABB6" stroke="none" d="M 25 0.5 L 54.83381279734415 0.5 L 54.83381279734415 -0.5 L 25 -0.5 Z M 86.18146904734415 0.5 L 116.0152818446883 0.5 L 116.0152818446883 3.5 L 123.0152818446883 0 L 116.0152818446883 -3.5 L 116.0152818446883 -0.5 L 86.18146904734415 -0.5 Z"/><text text-anchor="middle" pointer-events="none" font-size="8px" fill="#000000" x="70.50764092234415" y="3" font-family="Helvetica Neue, Helvetica, Arial, sans-serif">CALLS</text></g><g class="relationship" transform="translate(155.24678624930615 53.010784213635866) rotate(200.30062849004457)"><path class="b-outline" fill="#A5ABB6" stroke="none" d="M 25 0.5 L 61.43136788970901 0.5 L 61.43136788970901 -0.5 L 25 -0.5 Z M 92.77902413970901 0.5 L 129.21039202941802 0.5 L 129.21039202941802 3.5 L 136.21039202941802 0 L 129.21039202941802 -3.5 L 129.21039202941802 -0.5 L 92.77902413970901 -0.5 Z"/><text text-anchor="middle" pointer-events="none" font-size="8px" fill="#000000" x="77.10519601470901" y="3" transform="rotate(180 77.10519601470901 0)" font-family="Helvetica Neue, Helvetica, Arial, sans-serif">CALLS</text></g><g class="relationship" transform="translate(155.24678624930615 53.010784213635866) rotate(381.3334613761724)"><path class="b-outline" fill="#A5ABB6" stroke="none" d="M 25 0.5 L 58.57345035085352 0.5 L 58.57345035085352 -0.5 L 25 -0.5 Z M 89.92110660085352 0.5 L 123.49455695170704 0.5 L 123.49455695170704 3.5 L 130.49455695170704 0 L 123.49455695170704 -3.5 L 123.49455695170704 -0.5 L 89.92110660085352 -0.5 Z"/><text text-anchor="middle" pointer-events="none" font-size="8px" fill="#000000" x="74.24727847585352" y="3" font-family="Helvetica Neue, Helvetica, Arial, sans-serif">CALLS</text></g><g class="relationship" transform="translate(193.25428800402491 -126.68661686238795) rotate(506.809698228628)"><path class="b-outline" fill="#A5ABB6" stroke="none" d="M 25 0.5 L 93.87077470980672 0.5 L 93.87077470980672 -0.5 L 25 -0.5 Z M 125.21843095980672 0.5 L 194.08920566961345 0.5 L 194.08920566961345 3.5 L 201.08920566961345 0 L 194.08920566961345 -3.5 L 194.08920566961345 -0.5 L 125.21843095980672 -0.5 Z"/><text text-anchor="middle" pointer-events="none" font-size="8px" fill="#000000" x="109.54460283480672" y="3" transform="rotate(180 109.54460283480672 0)" font-family="Helvetica Neue, Helvetica, Arial, sans-serif">CALLS</text></g><g class="relationship" transform="translate(193.25428800402491 -126.68661686238795) rotate(401.48872186864924)"><path class="b-outline" fill="#A5ABB6" stroke="none" d="M 25 0.5 L 55.50181756040814 0.5 L 55.50181756040814 -0.5 L 25 -0.5 Z M 86.84947381040814 0.5 L 117.35129137081628 0.5 L 117.35129137081628 3.5 L 124.35129137081628 0 L 117.35129137081628 -3.5 L 117.35129137081628 -0.5 L 86.84947381040814 -0.5 Z"/><text text-anchor="middle" pointer-events="none" font-size="8px" fill="#000000" x="71.17564568540814" y="3" font-family="Helvetica Neue, Helvetica, Arial, sans-serif">CALLS</text></g><g class="relationship" transform="translate(193.25428800402491 -126.68661686238795) rotate(363.37758313547533)"><path class="b-outline" fill="#A5ABB6" stroke="none" d="M 25 0.5 L 58.374583875770355 0.5 L 58.374583875770355 -0.5 L 25 -0.5 Z M 89.72224012577036 0.5 L 123.09682400154071 0.5 L 123.09682400154071 3.5 L 130.0968240015407 0 L 123.09682400154071 -3.5 L 123.09682400154071 -0.5 L 89.72224012577036 -0.5 Z"/><text text-anchor="middle" pointer-events="none" font-size="8px" fill="#000000" x="74.04841200077036" y="3" font-family="Helvetica Neue, Helvetica, Arial, sans-serif">CALLS</text></g><g class="relationship" transform="translate(193.25428800402491 -126.68661686238795) rotate(326.0475926909349)"><path class="b-outline" fill="#A5ABB6" stroke="none" d="M 25 0.5 L 58.68861422027854 0.5 L 58.68861422027854 -0.5 L 25 -0.5 Z M 90.03627047027854 0.5 L 123.72488469055708 0.5 L 123.72488469055708 3.5 L 130.72488469055708 0 L 123.72488469055708 -3.5 L 123.72488469055708 -0.5 L 90.03627047027854 -0.5 Z"/><text text-anchor="middle" pointer-events="none" font-size="8px" fill="#000000" x="74.36244234527854" y="3" font-family="Helvetica Neue, Helvetica, Arial, sans-serif">CALLS</text></g><g class="relationship" transform="translate(193.25428800402491 -126.68661686238795) rotate(212.15443534620312)"><path class="b-outline" fill="#A5ABB6" stroke="none" d="M 25 0.5 L 52.94857666450636 0.5 L 52.94857666450636 -0.5 L 25 -0.5 Z M 84.29623291450636 0.5 L 112.24480957901272 0.5 L 112.24480957901272 3.5 L 119.24480957901272 0 L 112.24480957901272 -3.5 L 112.24480957901272 -0.5 L 84.29623291450636 -0.5 Z"/><text text-anchor="middle" pointer-events="none" font-size="8px" fill="#000000" x="68.62240478950636" y="3" transform="rotate(180 68.62240478950636 0)" font-family="Helvetica Neue, Helvetica, Arial, sans-serif">CALLS</text></g><g class="relationship" transform="translate(193.25428800402491 -126.68661686238795) rotate(288.84061968658654)"><path class="b-outline" fill="#A5ABB6" stroke="none" d="M 25 0.5 L 58.90480457315435 0.5 L 58.90480457315435 -0.5 L 25 -0.5 Z M 90.25246082315435 0.5 L 124.1572653963087 0.5 L 124.1572653963087 3.5 L 131.1572653963087 0 L 124.1572653963087 -3.5 L 124.1572653963087 -0.5 L 90.25246082315435 -0.5 Z"/><text text-anchor="middle" pointer-events="none" font-size="8px" fill="#000000" x="74.57863269815435" y="3" font-family="Helvetica Neue, Helvetica, Arial, sans-serif">CALLS</text></g><g class="relationship" transform="translate(193.25428800402491 -126.68661686238795) rotate(251.2192189600986)"><path class="b-outline" fill="#A5ABB6" stroke="none" d="M 25 0.5 L 57.21994491745815 0.5 L 57.21994491745815 -0.5 L 25 -0.5 Z M 88.56760116745815 0.5 L 120.7875460849163 0.5 L 120.7875460849163 3.5 L 127.7875460849163 0 L 120.7875460849163 -3.5 L 120.7875460849163 -0.5 L 88.56760116745815 -0.5 Z"/><text text-anchor="middle" pointer-events="none" font-size="8px" fill="#000000" x="72.89377304245815" y="3" transform="rotate(180 72.89377304245815 0)" font-family="Helvetica Neue, Helvetica, Arial, sans-serif">CALLS</text></g><g class="relationship" transform="translate(-123.40703654516953 -163.54163070471526) rotate(411.56709544420744)"><path class="b-outline" fill="#A5ABB6" stroke="none" d="M 25 0.5 L 83.34986506739142 0.5 L 83.34986506739142 -0.5 L 25 -0.5 Z M 114.69752131739142 0.5 L 173.04738638478284 0.5 L 173.04738638478284 3.5 L 180.04738638478284 0 L 173.04738638478284 -3.5 L 173.04738638478284 -0.5 L 114.69752131739142 -0.5 Z"/><text text-anchor="middle" pointer-events="none" font-size="8px" fill="#000000" x="99.02369319239142" y="3" font-family="Helvetica Neue, Helvetica, Arial, sans-serif">CALLS</text></g><g class="relationship" transform="translate(-123.40703654516953 -163.54163070471526) rotate(296.94277116786503)"><path class="b-outline" fill="#A5ABB6" stroke="none" d="M 25 0.5 L 55.90712213919177 0.5 L 55.90712213919177 -0.5 L 25 -0.5 Z M 87.25477838919177 0.5 L 118.16190052838354 0.5 L 118.16190052838354 3.5 L 125.16190052838354 0 L 118.16190052838354 -3.5 L 118.16190052838354 -0.5 L 87.25477838919177 -0.5 Z"/><text text-anchor="middle" pointer-events="none" font-size="8px" fill="#000000" x="71.58095026419177" y="3" font-family="Helvetica Neue, Helvetica, Arial, sans-serif">CALLS</text></g><g class="relationship" transform="translate(-123.40703654516953 -163.54163070471526) rotate(258.69200382821407)"><path class="b-outline" fill="#A5ABB6" stroke="none" d="M 25 0.5 L 57.708657419317035 0.5 L 57.708657419317035 -0.5 L 25 -0.5 Z M 89.05631366931703 0.5 L 121.76497108863407 0.5 L 121.76497108863407 3.5 L 128.76497108863407 0 L 121.76497108863407 -3.5 L 121.76497108863407 -0.5 L 89.05631366931703 -0.5 Z"/><text text-anchor="middle" pointer-events="none" font-size="8px" fill="#000000" x="73.38248554431703" y="3" transform="rotate(180 73.38248554431703 0)" font-family="Helvetica Neue, Helvetica, Arial, sans-serif">CALLS</text></g><g class="relationship" transform="translate(-123.40703654516953 -163.54163070471526) rotate(183.06230284691583)"><path class="b-outline" fill="#A5ABB6" stroke="none" d="M 25 0.5 L 56.82958302693682 0.5 L 56.82958302693682 -0.5 L 25 -0.5 Z M 88.17723927693682 0.5 L 120.00682230387363 0.5 L 120.00682230387363 3.5 L 127.00682230387363 0 L 120.00682230387363 -3.5 L 120.00682230387363 -0.5 L 88.17723927693682 -0.5 Z"/><text text-anchor="middle" pointer-events="none" font-size="8px" fill="#000000" x="72.50341115193682" y="3" transform="rotate(180 72.50341115193682 0)" font-family="Helvetica Neue, Helvetica, Arial, sans-serif">CALLS</text></g><g class="relationship" transform="translate(-123.40703654516953 -163.54163070471526) rotate(220.99477595302108)"><path class="b-outline" fill="#A5ABB6" stroke="none" d="M 25 0.5 L 58.1115157033917 0.5 L 58.1115157033917 -0.5 L 25 -0.5 Z M 89.4591719533917 0.5 L 122.5706876567834 0.5 L 122.5706876567834 3.5 L 129.5706876567834 0 L 122.5706876567834 -3.5 L 122.5706876567834 -0.5 L 89.4591719533917 -0.5 Z"/><text text-anchor="middle" pointer-events="none" font-size="8px" fill="#000000" x="73.7853438283917" y="3" transform="rotate(180 73.7853438283917 0)" font-family="Helvetica Neue, Helvetica, Arial, sans-serif">CALLS</text></g><g class="relationship" transform="translate(-123.40703654516953 -163.54163070471526) rotate(504.07438452361885)"><path class="b-outline" fill="#A5ABB6" stroke="none" d="M 25 0.5 L 54.00868349692561 0.5 L 54.00868349692561 -0.5 L 25 -0.5 Z M 85.35633974692561 0.5 L 114.36502324385123 0.5 L 114.36502324385123 3.5 L 121.36502324385123 0 L 114.36502324385123 -3.5 L 114.36502324385123 -0.5 L 85.35633974692561 -0.5 Z"/><text text-anchor="middle" pointer-events="none" font-size="8px" fill="#000000" x="69.68251162192561" y="3" transform="rotate(180 69.68251162192561 0)" font-family="Helvetica Neue, Helvetica, Arial, sans-serif">CALLS</text></g><g class="relationship" transform="translate(-342.34378619021686 45.34035986439044) rotate(430.4162573683616)"><path class="b-outline" fill="#A5ABB6" stroke="none" d="M 25 0.5 L 48.9669890826417 0.5 L 48.9669890826417 -0.5 L 25 -0.5 Z M 80.3146453326417 0.5 L 104.2816344152834 0.5 L 104.2816344152834 3.5 L 111.2816344152834 0 L 104.2816344152834 -3.5 L 104.2816344152834 -0.5 L 80.3146453326417 -0.5 Z"/><text text-anchor="middle" pointer-events="none" font-size="8px" fill="#000000" x="64.6408172076417" y="3" font-family="Helvetica Neue, Helvetica, Arial, sans-serif">CALLS</text></g><g class="relationship" transform="translate(-176.26891375488415 70.41940501681562) rotate(337.8672719725971)"><path class="b-outline" fill="#A5ABB6" stroke="none" d="M 25 0.5 L 78.15761306589962 0.5 L 78.15761306589962 -0.5 L 25 -0.5 Z M 109.50526931589962 0.5 L 162.66288238179925 0.5 L 162.66288238179925 3.5 L 169.66288238179925 0 L 162.66288238179925 -3.5 L 162.66288238179925 -0.5 L 109.50526931589962 -0.5 Z"/><text text-anchor="middle" pointer-events="none" font-size="8px" fill="#000000" x="93.83144119089962" y="3" font-family="Helvetica Neue, Helvetica, Arial, sans-serif">CALLS</text></g><g class="relationship" transform="translate(-176.26891375488415 70.41940501681562) rotate(499.3649837230329)"><path class="b-outline" fill="#A5ABB6" stroke="none" d="M 25 0.5 L 60.15126580831415 0.5 L 60.15126580831415 -0.5 L 25 -0.5 Z M 91.49892205831415 0.5 L 126.6501878666283 0.5 L 126.6501878666283 3.5 L 133.6501878666283 0 L 126.6501878666283 -3.5 L 126.6501878666283 -0.5 L 91.49892205831415 -0.5 Z"/><text text-anchor="middle" pointer-events="none" font-size="8px" fill="#000000" x="75.82509393331415" y="3" transform="rotate(180 75.82509393331415 0)" font-family="Helvetica Neue, Helvetica, Arial, sans-serif">CALLS</text></g><g class="relationship" transform="translate(-229.29685435948736 386.17196715280824) rotate(539.5110799771373)"><path class="b-outline" fill="#A5ABB6" stroke="none" d="M 25 0.5 L 52.26029564814105 0.5 L 52.26029564814105 -0.5 L 25 -0.5 Z M 83.60795189814105 0.5 L 110.8682475462821 0.5 L 110.8682475462821 3.5 L 117.8682475462821 0 L 110.8682475462821 -3.5 L 110.8682475462821 -0.5 L 83.60795189814105 -0.5 Z"/><text text-anchor="middle" pointer-events="none" font-size="8px" fill="#000000" x="67.93412377314105" y="3" transform="rotate(180 67.93412377314105 0)" font-family="Helvetica Neue, Helvetica, Arial, sans-serif">CALLS</text></g><g class="relationship" transform="translate(-229.29685435948736 386.17196715280824) rotate(419.1302984311357)"><path class="b-outline" fill="#A5ABB6" stroke="none" d="M 25 0.5 L 52.536940694953216 0.5 L 52.536940694953216 -0.5 L 25 -0.5 Z M 83.88459694495322 0.5 L 111.42153763990643 0.5 L 111.42153763990643 3.5 L 118.42153763990643 0 L 111.42153763990643 -3.5 L 111.42153763990643 -0.5 L 83.88459694495322 -0.5 Z"/><text text-anchor="middle" pointer-events="none" font-size="8px" fill="#000000" x="68.21076881995322" y="3" font-family="Helvetica Neue, Helvetica, Arial, sans-serif">CALLS</text></g><g class="relationship" transform="translate(-176.26891375488415 70.41940501681562) rotate(188.58737908401798)"><path class="b-outline" fill="#A5ABB6" stroke="none" d="M 25 0.5 L 57.107805028457165 0.5 L 57.107805028457165 -0.5 L 25 -0.5 Z M 103.84999252845716 0.5 L 135.95779755691433 0.5 L 135.95779755691433 3.5 L 142.95779755691433 0 L 135.95779755691433 -3.5 L 135.95779755691433 -0.5 L 103.84999252845716 -0.5 Z"/><text text-anchor="middle" pointer-events="none" font-size="8px" fill="#000000" x="80.47889877845716" y="3" transform="rotate(180 80.47889877845716 0)" font-family="Helvetica Neue, Helvetica, Arial, sans-serif">CONTAINS</text></g></g><g class="layer nodes"><g class="node" aria-label="graph-node0" transform="translate(38.435306127881155,197.28488100757076)" style="touch-action: none; -webkit-tap-highlight-color: rgba(0, 0, 0, 0);"><circle class="b-outline" cx="0" cy="0" r="25" fill="#C990C0" stroke="#b261a5" stroke-width="2px"/><text class="caption" text-anchor="middle" pointer-events="none" x="0" y="5" font-size="10px" fill="#FFFFFF" font-family="Helvetica Neue, Helvetica, Arial, sans-serif"> Keploy.t…</text></g><g class="node" aria-label="graph-node2" transform="translate(4.049956934040783,-2.9205067002090517)" style="touch-action: none; -webkit-tap-highlight-color: rgba(0, 0, 0, 0);"><circle class="b-outline" cx="0" cy="0" r="25" fill="#57C7E3" stroke="#23b3d7" stroke-width="2px"/><text class="caption" text-anchor="middle" pointer-events="none" x="0" y="5" font-size="10px" fill="#2A2C34" font-family="Helvetica Neue, Helvetica, Arial, sans-serif"> require</text></g><g class="node" aria-label="graph-node3" transform="translate(-22.79079317816072,331.3283529865104)" style="touch-action: none; -webkit-tap-highlight-color: rgba(0, 0, 0, 0);"><circle class="b-outline" cx="0" cy="0" r="25" fill="#57C7E3" stroke="#23b3d7" stroke-width="2px"/><text class="caption" text-anchor="middle" pointer-events="none" x="0" y="5" font-size="10px" fill="#2A2C34" font-family="Helvetica Neue, Helvetica, Arial, sans-serif"> done</text></g><g class="node" aria-label="graph-node4" transform="translate(76.0215571890042,344.59614078522725)" style="touch-action: none; -webkit-tap-highlight-color: rgba(0, 0, 0, 0);"><circle class="b-outline" cx="0" cy="0" r="25" fill="#57C7E3" stroke="#23b3d7" stroke-width="2px"/><text class="caption" text-anchor="middle" pointer-events="none" x="0" y="5" font-size="10px" fill="#2A2C34" font-family="Helvetica Neue, Helvetica, Arial, sans-serif"> test</text></g><g class="node" aria-label="graph-node5" transform="translate(160.41763648273692,291.6181646512589)" style="touch-action: none; -webkit-tap-highlight-color: rgba(0, 0, 0, 0);"><circle class="b-outline" cx="0" cy="0" r="25" fill="#57C7E3" stroke="#23b3d7" stroke-width="2px"/><text class="caption" text-anchor="middle" pointer-events="none" x="0" y="5" font-size="10px" fill="#2A2C34" font-family="Helvetica Neue, Helvetica, Arial, sans-serif"> describe</text></g><g class="node" aria-label="graph-node6" transform="translate(186.4376593509175,195.32858348262758)" style="touch-action: none; -webkit-tap-highlight-color: rgba(0, 0, 0, 0);"><circle class="b-outline" cx="0" cy="0" r="25" fill="#57C7E3" stroke="#23b3d7" stroke-width="2px"/><text class="caption" text-anchor="middle" pointer-events="none" x="0" y="5" font-size="10px" fill="#2A2C34" font-family="Helvetica Neue, Helvetica, Arial, sans-serif"> expect</text></g><g class="node" aria-label="graph-node11" transform="translate(155.24678624930615,53.010784213635866)" style="touch-action: none; -webkit-tap-highlight-color: rgba(0, 0, 0, 0);"><circle class="b-outline" cx="0" cy="0" r="25" fill="#C990C0" stroke="#b261a5" stroke-width="2px"/><text class="caption" text-anchor="middle" pointer-events="none" x="0" y="5" font-size="10px" fill="#FFFFFF" font-family="Helvetica Neue, Helvetica, Arial, sans-serif"> server.js</text></g><g class="node" aria-label="graph-node13" transform="translate(300.08668914664247,109.57897112375214)" style="touch-action: none; -webkit-tap-highlight-color: rgba(0, 0, 0, 0);"><circle class="b-outline" cx="0" cy="0" r="25" fill="#57C7E3" stroke="#23b3d7" stroke-width="2px"/><text class="caption" text-anchor="middle" pointer-events="none" x="0" y="5" font-size="10px" fill="#2A2C34" font-family="Helvetica Neue, Helvetica, Arial, sans-serif"> app.listen</text></g><g class="node" aria-label="graph-node16" transform="translate(193.25428800402491,-126.68661686238795)" style="touch-action: none; -webkit-tap-highlight-color: rgba(0, 0, 0, 0);"><circle class="b-outline" cx="0" cy="0" r="25" fill="#C990C0" stroke="#b261a5" stroke-width="2px"/><text class="caption" text-anchor="middle" pointer-events="none" x="0" y="5" font-size="10px" fill="#FFFFFF" font-family="Helvetica Neue, Helvetica, Arial, sans-serif"> app.js</text></g><g class="node" aria-label="graph-node22" transform="translate(305.1312698766729,-27.74547698014453)" style="touch-action: none; -webkit-tap-highlight-color: rgba(0, 0, 0, 0);"><circle class="b-outline" cx="0" cy="0" r="25" fill="#57C7E3" stroke="#23b3d7" stroke-width="2px"/><text class="caption" text-anchor="middle" pointer-events="none" x="0" y="5" font-size="10px" fill="#2A2C34" font-family="Helvetica Neue, Helvetica, Arial, sans-serif"> express</text></g><g class="node" aria-label="graph-node23" transform="translate(348.0817018469469,-117.54896190734229)" style="touch-action: none; -webkit-tap-highlight-color: rgba(0, 0, 0, 0);"><circle class="b-outline" cx="0" cy="0" r="25" fill="#57C7E3" stroke="#23b3d7" stroke-width="2px"/><text class="caption" text-anchor="middle" pointer-events="none" x="0" y="5" font-size="10px" fill="#2A2C34" font-family="Helvetica Neue, Helvetica, Arial, sans-serif"> app.use</text></g><g class="node" aria-label="graph-node24" transform="translate(322.42835698385755,-213.65959896074273)" style="touch-action: none; -webkit-tap-highlight-color: rgba(0, 0, 0, 0);"><circle class="b-outline" cx="0" cy="0" r="25" fill="#57C7E3" stroke="#23b3d7" stroke-width="2px"/><text class="caption" text-anchor="middle" pointer-events="none" x="0" y="5" font-size="10px" fill="#2A2C34" font-family="Helvetica Neue, Helvetica, Arial, sans-serif"> express.…</text></g><g class="node" aria-label="graph-node25" transform="translate(71.1342276411483,-203.45416174597148)" style="touch-action: none; -webkit-tap-highlight-color: rgba(0, 0, 0, 0);"><circle class="b-outline" cx="0" cy="0" r="25" fill="#57C7E3" stroke="#23b3d7" stroke-width="2px"/><text class="caption" text-anchor="middle" pointer-events="none" x="0" y="5" font-size="10px" fill="#2A2C34" font-family="Helvetica Neue, Helvetica, Arial, sans-serif"> res.send</text></g><g class="node" aria-label="graph-node26" transform="translate(243.68320599956638,-274.4770623108409)" style="touch-action: none; -webkit-tap-highlight-color: rgba(0, 0, 0, 0);"><circle class="b-outline" cx="0" cy="0" r="25" fill="#57C7E3" stroke="#23b3d7" stroke-width="2px"/><text class="caption" text-anchor="middle" pointer-events="none" x="0" y="5" font-size="10px" fill="#2A2C34" font-family="Helvetica Neue, Helvetica, Arial, sans-serif"> express.…</text></g><g class="node" aria-label="graph-node27" transform="translate(144.06462193567378,-271.33934234910157)" style="touch-action: none; -webkit-tap-highlight-color: rgba(0, 0, 0, 0);"><circle class="b-outline" cx="0" cy="0" r="25" fill="#57C7E3" stroke="#23b3d7" stroke-width="2px"/><text class="caption" text-anchor="middle" pointer-events="none" x="0" y="5" font-size="10px" fill="#2A2C34" font-family="Helvetica Neue, Helvetica, Arial, sans-serif"> app.get</text></g><g class="node" aria-label="graph-node34" transform="translate(-123.40703654516953,-163.54163070471526)" style="touch-action: none; -webkit-tap-highlight-color: rgba(0, 0, 0, 0);"><circle class="b-outline" cx="0" cy="0" r="25" fill="#C990C0" stroke="#b261a5" stroke-width="2px"/><text class="caption" text-anchor="middle" pointer-events="none" x="0" y="5" font-size="10px" fill="#FFFFFF" font-family="Helvetica Neue, Helvetica, Arial, sans-serif"> product.r…</text></g><g class="node" aria-label="graph-node36" transform="translate(-55.36863316637788,-297.4048894277905)" style="touch-action: none; -webkit-tap-highlight-color: rgba(0, 0, 0, 0);"><circle class="b-outline" cx="0" cy="0" r="25" fill="#57C7E3" stroke="#23b3d7" stroke-width="2px"/><text class="caption" text-anchor="middle" pointer-events="none" x="0" y="5" font-size="10px" fill="#2A2C34" font-family="Helvetica Neue, Helvetica, Arial, sans-serif"> router.get</text></g><g class="node" aria-label="graph-node37" transform="translate(-153.557732825282,-314.3216089767421)" style="touch-action: none; -webkit-tap-highlight-color: rgba(0, 0, 0, 0);"><circle class="b-outline" cx="0" cy="0" r="25" fill="#57C7E3" stroke="#23b3d7" stroke-width="2px"/><text class="caption" text-anchor="middle" pointer-events="none" x="0" y="5" font-size="10px" fill="#2A2C34" font-family="Helvetica Neue, Helvetica, Arial, sans-serif"> express.…</text></g><g class="node" aria-label="graph-node38" transform="translate(-275.1967983939179,-171.66211251441564)" style="touch-action: none; -webkit-tap-highlight-color: rgba(0, 0, 0, 0);"><circle class="b-outline" cx="0" cy="0" r="25" fill="#57C7E3" stroke="#23b3d7" stroke-width="2px"/><text class="caption" text-anchor="middle" pointer-events="none" x="0" y="5" font-size="10px" fill="#2A2C34" font-family="Helvetica Neue, Helvetica, Arial, sans-serif"> router.po…</text></g><g class="node" aria-label="graph-node39" transform="translate(-240.07226086940764,-264.9384892165355)" style="touch-action: none; -webkit-tap-highlight-color: rgba(0, 0, 0, 0);"><circle class="b-outline" cx="0" cy="0" r="25" fill="#57C7E3" stroke="#23b3d7" stroke-width="2px"/><text class="caption" text-anchor="middle" pointer-events="none" x="0" y="5" font-size="10px" fill="#2A2C34" font-family="Helvetica Neue, Helvetica, Arial, sans-serif"> router.put</text></g><g class="node" aria-label="graph-node40" transform="translate(-241.930418336033,-77.664229730825)" style="touch-action: none; -webkit-tap-highlight-color: rgba(0, 0, 0, 0);"><circle class="b-outline" cx="0" cy="0" r="25" fill="#57C7E3" stroke="#23b3d7" stroke-width="2px"/><text class="caption" text-anchor="middle" pointer-events="none" x="0" y="5" font-size="10px" fill="#2A2C34" font-family="Helvetica Neue, Helvetica, Arial, sans-serif"> router.de…</text></g><g class="node" aria-label="graph-node45" transform="translate(-342.34378619021686,45.34035986439044)" style="touch-action: none; -webkit-tap-highlight-color: rgba(0, 0, 0, 0);"><circle class="b-outline" cx="0" cy="0" r="25" fill="#57C7E3" stroke="#23b3d7" stroke-width="2px"/><text class="caption" text-anchor="middle" pointer-events="none" x="0" y="5" font-size="10px" fill="#2A2C34" font-family="Helvetica Neue, Helvetica, Arial, sans-serif"> connect…</text></g><g class="node" aria-label="graph-node46" transform="translate(-296.66432842520976,173.73845571162602)" style="touch-action: none; -webkit-tap-highlight-color: rgba(0, 0, 0, 0);"><circle class="b-outline" cx="0" cy="0" r="25" fill="#57C7E3" stroke="#23b3d7" stroke-width="2px"/><text class="caption" text-anchor="middle" pointer-events="none" x="0" y="5" font-size="10px" fill="#2A2C34" font-family="Helvetica Neue, Helvetica, Arial, sans-serif"> mongoo…</text></g><g class="node" aria-label="graph-node44" transform="translate(-176.26891375488415,70.41940501681562)" style="touch-action: none; -webkit-tap-highlight-color: rgba(0, 0, 0, 0);"><circle class="b-outline" cx="0" cy="0" r="25" fill="#C990C0" stroke="#b261a5" stroke-width="2px"/><text class="caption" text-anchor="middle" pointer-events="none" x="0" y="5" font-size="10px" fill="#FFFFFF" font-family="Helvetica Neue, Helvetica, Arial, sans-serif"> connect.js</text></g><g class="node" aria-label="graph-node51" transform="translate(-229.29685435948736,386.17196715280824)" style="touch-action: none; -webkit-tap-highlight-color: rgba(0, 0, 0, 0);"><circle class="b-outline" cx="0" cy="0" r="25" fill="#57C7E3" stroke="#23b3d7" stroke-width="2px"/><text class="caption" text-anchor="middle" pointer-events="none" x="0" y="5" font-size="10px" fill="#2A2C34" font-family="Helvetica Neue, Helvetica, Arial, sans-serif"> getProd…</text></g><g class="node" aria-label="graph-node52" transform="translate(-372.1599003474922,387.3910848562916)" style="touch-action: none; -webkit-tap-highlight-color: rgba(0, 0, 0, 0);"><circle class="b-outline" cx="0" cy="0" r="25" fill="#57C7E3" stroke="#23b3d7" stroke-width="2px"/><text class="caption" text-anchor="middle" pointer-events="none" x="0" y="5" font-size="10px" fill="#2A2C34" font-family="Helvetica Neue, Helvetica, Arial, sans-serif"> Product.…</text></g><g class="node" aria-label="graph-node53" transform="translate(-155.70906631694373,509.2758863024469)" style="touch-action: none; -webkit-tap-highlight-color: rgba(0, 0, 0, 0);"><circle class="b-outline" cx="0" cy="0" r="25" fill="#57C7E3" stroke="#23b3d7" stroke-width="2px"/><text class="caption" text-anchor="middle" pointer-events="none" x="0" y="5" font-size="10px" fill="#2A2C34" font-family="Helvetica Neue, Helvetica, Arial, sans-serif"> res.status</text></g></g></svg>