<svg xmlns="http://www.w3.org/2000/svg" width="842.60791015625" height="840.6696166992188" viewBox="-426.4128723144531 -398.0074462890625 842.60791015625 840.6696166992188"><title>Neo4j Graph Visualization</title><desc>Created using Neo4j (http://www.neo4j.com/)</desc><g class="layer relationships"><g class="relationship" transform="translate(-37.777126853251836 408.7429313174962) rotate(361.9717334825889)"><path class="b-outline" fill="#A5ABB6" stroke="none" d="M 25 0.5 L 44.09297595405965 0.5 L 44.09297595405965 -0.5 L 25 -0.5 Z M 91.87813220405965 0.5 L 110.9711081581193 0.5 L 110.9711081581193 3.5 L 117.9711081581193 0 L 110.9711081581193 -3.5 L 110.9711081581193 -0.5 L 91.87813220405965 -0.5 Z"/><text text-anchor="middle" pointer-events="none" font-size="8px" fill="#000000" x="67.98555407905965" y="3" font-family="Helvetica Neue, Helvetica, Arial, sans-serif">REQUIRES</text></g><g class="relationship" transform="translate(254.90208443718726 250.6547463143307) rotate(338.0600568060494)"><path class="b-outline" fill="#A5ABB6" stroke="none" d="M 25 0.5 L 43.91851070521625 0.5 L 43.91851070521625 -0.5 L 25 -0.5 Z M 91.70366695521625 0.5 L 110.6221776604325 0.5 L 110.6221776604325 3.5 L 117.6221776604325 0 L 110.6221776604325 -3.5 L 110.6221776604325 -0.5 L 91.70366695521625 -0.5 Z"/><text text-anchor="middle" pointer-events="none" font-size="8px" fill="#000000" x="67.81108883021625" y="3" font-family="Helvetica Neue, Helvetica, Arial, sans-serif">REQUIRES</text></g><g class="relationship" transform="translate(126.37145800528911 -78.5679216814595) rotate(497.2081972108978)"><path class="b-outline" fill="#A5ABB6" stroke="none" d="M 25 0.5 L 60.82133865055479 0.5 L 60.82133865055479 -0.5 L 25 -0.5 Z M 108.6064949005548 0.5 L 144.4278335511096 0.5 L 144.4278335511096 3.5 L 151.4278335511096 0 L 144.4278335511096 -3.5 L 144.4278335511096 -0.5 L 108.6064949005548 -0.5 Z"/><text text-anchor="middle" pointer-events="none" font-size="8px" fill="#000000" x="84.7139167755548" y="3" transform="rotate(180 84.7139167755548 0)" font-family="Helvetica Neue, Helvetica, Arial, sans-serif">REQUIRES</text></g><g class="relationship" transform="translate(126.37145800528911 -78.5679216814595) rotate(393.53509447516865)"><path class="b-outline" fill="#A5ABB6" stroke="none" d="M 25 0.5 L 45.90862890688892 0.5 L 45.90862890688892 -0.5 L 25 -0.5 Z M 93.69378515688892 0.5 L 114.60241406377784 0.5 L 114.60241406377784 3.5 L 121.60241406377784 0 L 114.60241406377784 -3.5 L 114.60241406377784 -0.5 L 93.69378515688892 -0.5 Z"/><text text-anchor="middle" pointer-events="none" font-size="8px" fill="#000000" x="69.80120703188892" y="3" font-family="Helvetica Neue, Helvetica, Arial, sans-serif">REQUIRES</text></g><g class="relationship" transform="translate(126.37145800528911 -78.5679216814595) rotate(345.9209121921257)"><path class="b-outline" fill="#A5ABB6" stroke="none" d="M 25 0.5 L 46.72676450509033 0.5 L 46.72676450509033 -0.5 L 25 -0.5 Z M 94.51192075509033 0.5 L 116.23868526018066 0.5 L 116.23868526018066 3.5 L 123.23868526018066 0 L 116.23868526018066 -3.5 L 116.23868526018066 -0.5 L 94.51192075509033 -0.5 Z"/><text text-anchor="middle" pointer-events="none" font-size="8px" fill="#000000" x="70.61934263009033" y="3" font-family="Helvetica Neue, Helvetica, Arial, sans-serif">REQUIRES</text></g><g class="relationship" transform="translate(126.37145800528911 -78.5679216814595) rotate(301.8075687466471)"><path class="b-outline" fill="#A5ABB6" stroke="none" d="M 25 0.5 L 46.65904205256203 0.5 L 46.65904205256203 -0.5 L 25 -0.5 Z M 94.44419830256203 0.5 L 116.10324035512406 0.5 L 116.10324035512406 3.5 L 123.10324035512406 0 L 116.10324035512406 -3.5 L 116.10324035512406 -0.5 L 94.44419830256203 -0.5 Z"/><text text-anchor="middle" pointer-events="none" font-size="8px" fill="#000000" x="70.55162017756203" y="3" font-family="Helvetica Neue, Helvetica, Arial, sans-serif">REQUIRES</text></g><g class="relationship" transform="translate(126.37145800528911 -78.5679216814595) rotate(250.8577409214122)"><path class="b-outline" fill="#A5ABB6" stroke="none" d="M 25 0.5 L 52.7570646579554 0.5 L 52.7570646579554 -0.5 L 25 -0.5 Z M 100.5422209079554 0.5 L 128.2992855659108 0.5 L 128.2992855659108 3.5 L 135.2992855659108 0 L 128.2992855659108 -3.5 L 128.2992855659108 -0.5 L 100.5422209079554 -0.5 Z"/><text text-anchor="middle" pointer-events="none" font-size="8px" fill="#000000" x="76.6496427829554" y="3" transform="rotate(180 76.6496427829554 0)" font-family="Helvetica Neue, Helvetica, Arial, sans-serif">REQUIRES</text></g><g class="relationship" transform="translate(-10.062758768471536 -358.92617799588993) rotate(416.95420988539985)"><path class="b-outline" fill="#A5ABB6" stroke="none" d="M 25 0.5 L 49.50849634099271 0.5 L 49.50849634099271 -0.5 L 25 -0.5 Z M 97.2936525909927 0.5 L 121.80214893198541 0.5 L 121.80214893198541 3.5 L 128.8021489319854 0 L 121.80214893198541 -3.5 L 121.80214893198541 -0.5 L 97.2936525909927 -0.5 Z"/><text text-anchor="middle" pointer-events="none" font-size="8px" fill="#000000" x="73.4010744659927" y="3" font-family="Helvetica Neue, Helvetica, Arial, sans-serif">REQUIRES</text></g><g class="relationship" transform="translate(-10.062758768471536 -358.92617799588993) rotate(183.98814560233984)"><path class="b-outline" fill="#A5ABB6" stroke="none" d="M 25 0.5 L 45.082354770956314 0.5 L 45.082354770956314 -0.5 L 25 -0.5 Z M 92.86751102095631 0.5 L 112.94986579191263 0.5 L 112.94986579191263 3.5 L 119.94986579191263 0 L 112.94986579191263 -3.5 L 112.94986579191263 -0.5 L 92.86751102095631 -0.5 Z"/><text text-anchor="middle" pointer-events="none" font-size="8px" fill="#000000" x="68.97493289595631" y="3" transform="rotate(180 68.97493289595631 0)" font-family="Helvetica Neue, Helvetica, Arial, sans-serif">REQUIRES</text></g><g class="relationship" transform="translate(-47.19020957314913 -97.67452811015372) rotate(432.3950178000674)"><path class="b-outline" fill="#A5ABB6" stroke="none" d="M 25 0.5 L 45.50169198415999 0.5 L 45.50169198415999 -0.5 L 25 -0.5 Z M 93.28684823415999 0.5 L 113.78854021831998 0.5 L 113.78854021831998 3.5 L 120.78854021831998 0 L 113.78854021831998 -3.5 L 113.78854021831998 -0.5 L 93.28684823415999 -0.5 Z"/><text text-anchor="middle" pointer-events="none" font-size="8px" fill="#000000" x="69.39427010915999" y="3" font-family="Helvetica Neue, Helvetica, Arial, sans-serif">REQUIRES</text></g><g class="relationship" transform="translate(-397.41287778537236 -62.114084415809785) rotate(415.8260002377039)"><path class="b-outline" fill="#A5ABB6" stroke="none" d="M 25 0.5 L 45.02875821083191 0.5 L 45.02875821083191 -0.5 L 25 -0.5 Z M 92.81391446083191 0.5 L 112.84267267166382 0.5 L 112.84267267166382 3.5 L 119.84267267166382 0 L 112.84267267166382 -3.5 L 112.84267267166382 -0.5 L 92.81391446083191 -0.5 Z"/><text text-anchor="middle" pointer-events="none" font-size="8px" fill="#000000" x="68.92133633583191" y="3" font-family="Helvetica Neue, Helvetica, Arial, sans-serif">REQUIRES</text></g><g class="relationship" transform="translate(-131.10852257467425 -28.851172089111078) rotate(388.7180106860724)"><path class="b-outline" fill="#A5ABB6" stroke="none" d="M 25 0.5 L 45.59098369824697 0.5 L 45.59098369824697 -0.5 L 25 -0.5 Z M 93.37613994824697 0.5 L 113.96712364649395 0.5 L 113.96712364649395 3.5 L 120.96712364649395 0 L 113.96712364649395 -3.5 L 113.96712364649395 -0.5 L 93.37613994824697 -0.5 Z"/><text text-anchor="middle" pointer-events="none" font-size="8px" fill="#000000" x="69.48356182324697" y="3" font-family="Helvetica Neue, Helvetica, Arial, sans-serif">REQUIRES</text></g><g class="relationship" transform="translate(-169.6230104645296 105.83267049009774) rotate(338.8133966900307)"><path class="b-outline" fill="#A5ABB6" stroke="none" d="M 25 0.5 L 61.906790075215724 0.5 L 61.906790075215724 -0.5 L 25 -0.5 Z M 109.69194632521572 0.5 L 146.59873640043145 0.5 L 146.59873640043145 3.5 L 153.59873640043145 0 L 146.59873640043145 -3.5 L 146.59873640043145 -0.5 L 109.69194632521572 -0.5 Z"/><text text-anchor="middle" pointer-events="none" font-size="8px" fill="#000000" x="85.79936820021572" y="3" font-family="Helvetica Neue, Helvetica, Arial, sans-serif">REQUIRES</text></g><g class="relationship" transform="translate(-169.6230104645296 105.83267049009774) rotate(198.189171773336)"><path class="b-outline" fill="#A5ABB6" stroke="none" d="M 25 0.5 L 49.673628060763846 0.5 L 49.673628060763846 -0.5 L 25 -0.5 Z M 97.45878431076385 0.5 L 122.13241237152769 0.5 L 122.13241237152769 3.5 L 129.1324123715277 0 L 122.13241237152769 -3.5 L 122.13241237152769 -0.5 L 97.45878431076385 -0.5 Z"/><text text-anchor="middle" pointer-events="none" font-size="8px" fill="#000000" x="73.56620618576385" y="3" transform="rotate(180 73.56620618576385 0)" font-family="Helvetica Neue, Helvetica, Arial, sans-serif">REQUIRES</text></g><g class="relationship" transform="translate(-169.6230104645296 105.83267049009774) rotate(411.8735008251283)"><path class="b-outline" fill="#A5ABB6" stroke="none" d="M 25 0.5 L 44.73554369783042 0.5 L 44.73554369783042 -0.5 L 25 -0.5 Z M 92.52069994783042 0.5 L 112.25624364566085 0.5 L 112.25624364566085 3.5 L 119.25624364566085 0 L 112.25624364566085 -3.5 L 112.25624364566085 -0.5 L 92.52069994783042 -0.5 Z"/><text text-anchor="middle" pointer-events="none" font-size="8px" fill="#000000" x="68.62812182283042" y="3" font-family="Helvetica Neue, Helvetica, Arial, sans-serif">REQUIRES</text></g><g class="relationship" transform="translate(-169.6230104645296 105.83267049009774) rotate(485.7475889966603)"><path class="b-outline" fill="#A5ABB6" stroke="none" d="M 25 0.5 L 45.73537082835169 0.5 L 45.73537082835169 -0.5 L 25 -0.5 Z M 93.52052707835169 0.5 L 114.25589790670338 0.5 L 114.25589790670338 3.5 L 121.25589790670338 0 L 114.25589790670338 -3.5 L 114.25589790670338 -0.5 L 93.52052707835169 -0.5 Z"/><text text-anchor="middle" pointer-events="none" font-size="8px" fill="#000000" x="69.62794895335169" y="3" transform="rotate(180 69.62794895335169 0)" font-family="Helvetica Neue, Helvetica, Arial, sans-serif">REQUIRES</text></g></g><g class="layer nodes"><g class="node" aria-label="graph-node0" transform="translate(-37.777126853251836,408.7429313174962)" style="touch-action: none; -webkit-tap-highlight-color: rgba(0, 0, 0, 0);"><circle class="b-outline" cx="0" cy="0" r="25" fill="#C990C0" stroke="#b261a5" stroke-width="2px"/><text class="caption" text-anchor="middle" pointer-events="none" x="0" y="5" font-size="10px" fill="#FFFFFF" font-family="Helvetica Neue, Helvetica, Arial, sans-serif"> Keploy.t…</text></g><g class="node" aria-label="graph-node1" transform="translate(105.10933137843023,413.6620594888724)" style="touch-action: none; -webkit-tap-highlight-color: rgba(0, 0, 0, 0);"><circle class="b-outline" cx="0" cy="0" r="25" fill="#F79767" stroke="#f36924" stroke-width="2px"/><text class="caption" text-anchor="middle" pointer-events="none" x="0" y="5" font-size="10px" fill="#FFFFFF" font-family="Helvetica Neue, Helvetica, Arial, sans-serif"> @keploy…</text></g><g class="node" aria-label="graph-node11" transform="translate(254.90208443718726,250.6547463143307)" style="touch-action: none; -webkit-tap-highlight-color: rgba(0, 0, 0, 0);"><circle class="b-outline" cx="0" cy="0" r="25" fill="#C990C0" stroke="#b261a5" stroke-width="2px"/><text class="caption" text-anchor="middle" pointer-events="none" x="0" y="5" font-size="10px" fill="#FFFFFF" font-family="Helvetica Neue, Helvetica, Arial, sans-serif"> server.js</text></g><g class="node" aria-label="graph-node12" transform="translate(387.194994024504,197.36617686903594)" style="touch-action: none; -webkit-tap-highlight-color: rgba(0, 0, 0, 0);"><circle class="b-outline" cx="0" cy="0" r="25" fill="#F79767" stroke="#f36924" stroke-width="2px"/><text class="caption" text-anchor="middle" pointer-events="none" x="0" y="5" font-size="10px" fill="#FFFFFF" font-family="Helvetica Neue, Helvetica, Arial, sans-serif"> ./app</text></g><g class="node" aria-label="graph-node16" transform="translate(126.37145800528911,-78.5679216814595)" style="touch-action: none; -webkit-tap-highlight-color: rgba(0, 0, 0, 0);"><circle class="b-outline" cx="0" cy="0" r="25" fill="#C990C0" stroke="#b261a5" stroke-width="2px"/><text class="caption" text-anchor="middle" pointer-events="none" x="0" y="5" font-size="10px" fill="#FFFFFF" font-family="Helvetica Neue, Helvetica, Arial, sans-serif"> app.js</text></g><g class="node" aria-label="graph-node17" transform="translate(-3.0960610125499395,41.285914180825294)" style="touch-action: none; -webkit-tap-highlight-color: rgba(0, 0, 0, 0);"><circle class="b-outline" cx="0" cy="0" r="25" fill="#F79767" stroke="#f36924" stroke-width="2px"/><text class="caption" text-anchor="middle" pointer-events="none" x="0" y="5" font-size="10px" fill="#FFFFFF" font-family="Helvetica Neue, Helvetica, Arial, sans-serif"> mongoose</text></g><g class="node" aria-label="graph-node18" transform="translate(248.5715478824953,2.4222372474504974)" style="touch-action: none; -webkit-tap-highlight-color: rgba(0, 0, 0, 0);"><circle class="b-outline" cx="0" cy="0" r="25" fill="#F79767" stroke="#f36924" stroke-width="2px"/><text class="caption" text-anchor="middle" pointer-events="none" x="0" y="5" font-size="10px" fill="#FFFFFF" font-family="Helvetica Neue, Helvetica, Arial, sans-serif"> ./db/con…</text></g><g class="node" aria-label="graph-node19" transform="translate(270.1571816681235,-114.62861327801565)" style="touch-action: none; -webkit-tap-highlight-color: rgba(0, 0, 0, 0);"><circle class="b-outline" cx="0" cy="0" r="25" fill="#F79767" stroke="#f36924" stroke-width="2px"/><text class="caption" text-anchor="middle" pointer-events="none" x="0" y="5" font-size="10px" fill="#FFFFFF" font-family="Helvetica Neue, Helvetica, Arial, sans-serif"> ./models…</text></g><g class="node" aria-label="graph-node20" transform="translate(204.43194577747073,-204.42947280989875)" style="touch-action: none; -webkit-tap-highlight-color: rgba(0, 0, 0, 0);"><circle class="b-outline" cx="0" cy="0" r="25" fill="#F79767" stroke="#f36924" stroke-width="2px"/><text class="caption" text-anchor="middle" pointer-events="none" x="0" y="5" font-size="10px" fill="#FFFFFF" font-family="Helvetica Neue, Helvetica, Arial, sans-serif"> ./routes/…</text></g><g class="node" aria-label="graph-node21" transform="translate(73.80695521042236,-230.0038289124391)" style="touch-action: none; -webkit-tap-highlight-color: rgba(0, 0, 0, 0);"><circle class="b-outline" cx="0" cy="0" r="25" fill="#F79767" stroke="#f36924" stroke-width="2px"/><text class="caption" text-anchor="middle" pointer-events="none" x="0" y="5" font-size="10px" fill="#FFFFFF" font-family="Helvetica Neue, Helvetica, Arial, sans-serif"> express</text></g><g class="node" aria-label="graph-node34" transform="translate(-10.062758768471536,-358.92617799588993)" style="touch-action: none; -webkit-tap-highlight-color: rgba(0, 0, 0, 0);"><circle class="b-outline" cx="0" cy="0" r="25" fill="#C990C0" stroke="#b261a5" stroke-width="2px"/><text class="caption" text-anchor="middle" pointer-events="none" x="0" y="5" font-size="10px" fill="#FFFFFF" font-family="Helvetica Neue, Helvetica, Arial, sans-serif"> product.r…</text></g><g class="node" aria-label="graph-node35" transform="translate(-154.66162286561612,-369.0074524643782)" style="touch-action: none; -webkit-tap-highlight-color: rgba(0, 0, 0, 0);"><circle class="b-outline" cx="0" cy="0" r="25" fill="#F79767" stroke="#f36924" stroke-width="2px"/><text class="caption" text-anchor="middle" pointer-events="none" x="0" y="5" font-size="10px" fill="#FFFFFF" font-family="Helvetica Neue, Helvetica, Arial, sans-serif"> ../model…</text></g><g class="node" aria-label="graph-node44" transform="translate(-47.19020957314913,-97.67452811015372)" style="touch-action: none; -webkit-tap-highlight-color: rgba(0, 0, 0, 0);"><circle class="b-outline" cx="0" cy="0" r="25" fill="#C990C0" stroke="#b261a5" stroke-width="2px"/><text class="caption" text-anchor="middle" pointer-events="none" x="0" y="5" font-size="10px" fill="#FFFFFF" font-family="Helvetica Neue, Helvetica, Arial, sans-serif"> connect.js</text></g><g class="node" aria-label="graph-node49" transform="translate(-397.41287778537236,-62.114084415809785)" style="touch-action: none; -webkit-tap-highlight-color: rgba(0, 0, 0, 0);"><circle class="b-outline" cx="0" cy="0" r="25" fill="#C990C0" stroke="#b261a5" stroke-width="2px"/><text class="caption" text-anchor="middle" pointer-events="none" x="0" y="5" font-size="10px" fill="#FFFFFF" font-family="Helvetica Neue, Helvetica, Arial, sans-serif"> product.…</text></g><g class="node" aria-label="graph-node50" transform="translate(-316.05358990557244,57.719408825281164)" style="touch-action: none; -webkit-tap-highlight-color: rgba(0, 0, 0, 0);"><circle class="b-outline" cx="0" cy="0" r="25" fill="#F79767" stroke="#f36924" stroke-width="2px"/><text class="caption" text-anchor="middle" pointer-events="none" x="0" y="5" font-size="10px" fill="#FFFFFF" font-family="Helvetica Neue, Helvetica, Arial, sans-serif"> ../model…</text></g><g class="node" aria-label="graph-node80" transform="translate(-131.10852257467425,-28.851172089111078)" style="touch-action: none; -webkit-tap-highlight-color: rgba(0, 0, 0, 0);"><circle class="b-outline" cx="0" cy="0" r="25" fill="#C990C0" stroke="#b261a5" stroke-width="2px"/><text class="caption" text-anchor="middle" pointer-events="none" x="0" y="5" font-size="10px" fill="#FFFFFF" font-family="Helvetica Neue, Helvetica, Arial, sans-serif"> product.…</text></g><g class="node" aria-label="graph-node86" transform="translate(-169.6230104645296,105.83267049009774)" style="touch-action: none; -webkit-tap-highlight-color: rgba(0, 0, 0, 0);"><circle class="b-outline" cx="0" cy="0" r="25" fill="#C990C0" stroke="#b261a5" stroke-width="2px"/><text class="caption" text-anchor="middle" pointer-events="none" x="0" y="5" font-size="10px" fill="#FFFFFF" font-family="Helvetica Neue, Helvetica, Arial, sans-serif"> product.t…</text></g><g class="node" aria-label="graph-node87" transform="translate(-80.55923955368738,219.31178108714676)" style="touch-action: none; -webkit-tap-highlight-color: rgba(0, 0, 0, 0);"><circle class="b-outline" cx="0" cy="0" r="25" fill="#F79767" stroke="#f36924" stroke-width="2px"/><text class="caption" text-anchor="middle" pointer-events="none" x="0" y="5" font-size="10px" fill="#FFFFFF" font-family="Helvetica Neue, Helvetica, Arial, sans-serif"> ../app</text></g><g class="node" aria-label="graph-node88" transform="translate(-255.06797505469564,224.53374756474486)" style="touch-action: none; -webkit-tap-highlight-color: rgba(0, 0, 0, 0);"><circle class="b-outline" cx="0" cy="0" r="25" fill="#F79767" stroke="#f36924" stroke-width="2px"/><text class="caption" text-anchor="middle" pointer-events="none" x="0" y="5" font-size="10px" fill="#FFFFFF" font-family="Helvetica Neue, Helvetica, Arial, sans-serif"> supertest</text></g></g></svg>