<svg xmlns="http://www.w3.org/2000/svg" width="322.54620361328125" height="490.36114501953125" viewBox="-87.04084777832031 -205.60411071777344 322.54620361328125 490.36114501953125"><title>Neo4j Graph Visualization</title><desc>Created using Neo4j (http://www.neo4j.com/)</desc><g class="layer relationships"><g class="relationship" transform="translate(-35.03378767230178 255.75703010804867) rotate(352.6537557941074)"><path class="b-outline" fill="#A5ABB6" stroke="none" d="M 25 0.5 L 45.61956918670279 0.5 L 45.61956918670279 -0.5 L 25 -0.5 Z M 92.36175668670279 0.5 L 112.98132587340558 0.5 L 112.98132587340558 3.5 L 119.98132587340558 0 L 112.98132587340558 -3.5 L 112.98132587340558 -0.5 L 92.36175668670279 -0.5 Z"/><text text-anchor="middle" pointer-events="none" font-size="8px" fill="#000000" x="68.99066293670279" y="3" font-family="Helvetica Neue, Helvetica, Arial, sans-serif">CONTAINS</text></g><g class="relationship" transform="translate(88.8990721602897 -33.29689271330098) rotate(324.88307373789297)"><path class="b-outline" fill="#A5ABB6" stroke="none" d="M 25 0.5 L 45.017154819459705 0.5 L 45.017154819459705 -0.5 L 25 -0.5 Z M 91.7593423194597 0.5 L 111.77649713891941 0.5 L 111.77649713891941 3.5 L 118.77649713891941 0 L 111.77649713891941 -3.5 L 111.77649713891941 -0.5 L 91.7593423194597 -0.5 Z"/><text text-anchor="middle" pointer-events="none" font-size="8px" fill="#000000" x="68.3882485694597" y="3" font-family="Helvetica Neue, Helvetica, Arial, sans-serif">CONTAINS</text></g><g class="relationship" transform="translate(88.8990721602897 -33.29689271330098) rotate(259.62332054331364)"><path class="b-outline" fill="#A5ABB6" stroke="none" d="M 25 0.5 L 45.97390445499629 0.5 L 45.97390445499629 -0.5 L 25 -0.5 Z M 92.71609195499629 0.5 L 113.68999640999257 0.5 L 113.68999640999257 3.5 L 120.68999640999257 0 L 113.68999640999257 -3.5 L 113.68999640999257 -0.5 L 92.71609195499629 -0.5 Z"/><text text-anchor="middle" pointer-events="none" font-size="8px" fill="#000000" x="69.34499820499629" y="3" transform="rotate(180 69.34499820499629 0)" font-family="Helvetica Neue, Helvetica, Arial, sans-serif">CONTAINS</text></g><g class="relationship" transform="translate(88.8990721602897 -33.29689271330098) rotate(211.87849103366256)"><path class="b-outline" fill="#A5ABB6" stroke="none" d="M 25 0.5 L 46.891604936688836 0.5 L 46.891604936688836 -0.5 L 25 -0.5 Z M 93.63379243668884 0.5 L 115.52539737337767 0.5 L 115.52539737337767 3.5 L 122.52539737337767 0 L 115.52539737337767 -3.5 L 115.52539737337767 -0.5 L 93.63379243668884 -0.5 Z"/><text text-anchor="middle" pointer-events="none" font-size="8px" fill="#000000" x="70.26269868668884" y="3" transform="rotate(180 70.26269868668884 0)" font-family="Helvetica Neue, Helvetica, Arial, sans-serif">CONTAINS</text></g><g class="relationship" transform="translate(88.8990721602897 -33.29689271330098) rotate(532.0037058079702)"><path class="b-outline" fill="#A5ABB6" stroke="none" d="M 25 0.5 L 47.3202245712083 0.5 L 47.3202245712083 -0.5 L 25 -0.5 Z M 94.0624120712083 0.5 L 116.3826366424166 0.5 L 116.3826366424166 3.5 L 123.3826366424166 0 L 116.3826366424166 -3.5 L 116.3826366424166 -0.5 L 94.0624120712083 -0.5 Z"/><text text-anchor="middle" pointer-events="none" font-size="8px" fill="#000000" x="70.6913183212083" y="3" transform="rotate(180 70.6913183212083 0)" font-family="Helvetica Neue, Helvetica, Arial, sans-serif">CONTAINS</text></g><g class="relationship" transform="translate(88.8990721602897 -33.29689271330098) rotate(480.95362862066366)"><path class="b-outline" fill="#A5ABB6" stroke="none" d="M 25 0.5 L 44.82113593863512 0.5 L 44.82113593863512 -0.5 L 25 -0.5 Z M 91.56332343863512 0.5 L 111.38445937727025 0.5 L 111.38445937727025 3.5 L 118.38445937727025 0 L 111.38445937727025 -3.5 L 111.38445937727025 -0.5 L 91.56332343863512 -0.5 Z"/><text text-anchor="middle" pointer-events="none" font-size="8px" fill="#000000" x="68.19222968863512" y="3" transform="rotate(180 68.19222968863512 0)" font-family="Helvetica Neue, Helvetica, Arial, sans-serif">CONTAINS</text></g></g><g class="layer nodes"><g class="node" aria-label="graph-node44" transform="translate(-35.03378767230178,255.75703010804867)" style="touch-action: none; -webkit-tap-highlight-color: rgba(0, 0, 0, 0);"><circle class="b-outline" cx="0" cy="0" r="25" fill="#C990C0" stroke="#b261a5" stroke-width="2px"/><text class="caption" text-anchor="middle" pointer-events="none" x="0" y="5" font-size="10px" fill="#FFFFFF" font-family="Helvetica Neue, Helvetica, Arial, sans-serif"> connect.js</text></g><g class="node" aria-label="graph-node45" transform="translate(108.7574682584564,237.21897277007983)" style="touch-action: none; -webkit-tap-highlight-color: rgba(0, 0, 0, 0);"><circle class="b-outline" cx="0" cy="0" r="25" fill="#57C7E3" stroke="#23b3d7" stroke-width="2px"/><text class="caption" text-anchor="middle" pointer-events="none" x="0" y="5" font-size="10px" fill="#2A2C34" font-family="Helvetica Neue, Helvetica, Arial, sans-serif"> connect…</text></g><g class="node" aria-label="graph-node49" transform="translate(88.8990721602897,-33.29689271330098)" style="touch-action: none; -webkit-tap-highlight-color: rgba(0, 0, 0, 0);"><circle class="b-outline" cx="0" cy="0" r="25" fill="#C990C0" stroke="#b261a5" stroke-width="2px"/><text class="caption" text-anchor="middle" pointer-events="none" x="0" y="5" font-size="10px" fill="#FFFFFF" font-family="Helvetica Neue, Helvetica, Arial, sans-serif"> product.…</text></g><g class="node" aria-label="graph-node51" transform="translate(206.5053445831828,-116.00388042492034)" style="touch-action: none; -webkit-tap-highlight-color: rgba(0, 0, 0, 0);"><circle class="b-outline" cx="0" cy="0" r="25" fill="#57C7E3" stroke="#23b3d7" stroke-width="2px"/><text class="caption" text-anchor="middle" pointer-events="none" x="0" y="5" font-size="10px" fill="#2A2C34" font-family="Helvetica Neue, Helvetica, Arial, sans-serif"> getProd…</text></g><g class="node" aria-label="graph-node55" transform="translate(62.65756530275294,-176.6041094603633)" style="touch-action: none; -webkit-tap-highlight-color: rgba(0, 0, 0, 0);"><circle class="b-outline" cx="0" cy="0" r="25" fill="#57C7E3" stroke="#23b3d7" stroke-width="2px"/><text class="caption" text-anchor="middle" pointer-events="none" x="0" y="5" font-size="10px" fill="#2A2C34" font-family="Helvetica Neue, Helvetica, Arial, sans-serif"> updateP…</text></g><g class="node" aria-label="graph-node63" transform="translate(-36.3750702293931,-111.20794532268664)" style="touch-action: none; -webkit-tap-highlight-color: rgba(0, 0, 0, 0);"><circle class="b-outline" cx="0" cy="0" r="25" fill="#57C7E3" stroke="#23b3d7" stroke-width="2px"/><text class="caption" text-anchor="middle" pointer-events="none" x="0" y="5" font-size="10px" fill="#2A2C34" font-family="Helvetica Neue, Helvetica, Arial, sans-serif"> deletePr…</text></g><g class="node" aria-label="graph-node66" transform="translate(-58.04085022347897,-12.655524861158208)" style="touch-action: none; -webkit-tap-highlight-color: rgba(0, 0, 0, 0);"><circle class="b-outline" cx="0" cy="0" r="25" fill="#57C7E3" stroke="#23b3d7" stroke-width="2px"/><text class="caption" text-anchor="middle" pointer-events="none" x="0" y="5" font-size="10px" fill="#2A2C34" font-family="Helvetica Neue, Helvetica, Arial, sans-serif"> getProd…</text></g><g class="node" aria-label="graph-node68" transform="translate(15.150111079778187,89.66730504546643)" style="touch-action: none; -webkit-tap-highlight-color: rgba(0, 0, 0, 0);"><circle class="b-outline" cx="0" cy="0" r="25" fill="#57C7E3" stroke="#23b3d7" stroke-width="2px"/><text class="caption" text-anchor="middle" pointer-events="none" x="0" y="5" font-size="10px" fill="#2A2C34" font-family="Helvetica Neue, Helvetica, Arial, sans-serif"> createPr…</text></g></g></svg>