<svg xmlns="http://www.w3.org/2000/svg" width="1231.1549072265625" height="1200.800537109375" viewBox="-599.0025634765625 -611.9661254882812 1231.1549072265625 1200.800537109375"><title>Neo4j Graph Visualization</title><desc>Created using Neo4j (http://www.neo4j.com/)</desc><g class="layer relationships"><g class="relationship" transform="translate(0.2246731712114668 436.28255966945284) rotate(480.55640808933236)"><path class="b-outline" fill="#A5ABB6" stroke="none" d="M 25 0.5 L 37.74998775731447 0.5 L 37.74998775731447 -0.5 L 25 -0.5 Z M 98.72655025731447 0.5 L 111.47653801462894 0.5 L 111.47653801462894 3.5 L 118.47653801462894 0 L 111.47653801462894 -3.5 L 111.47653801462894 -0.5 L 98.72655025731447 -0.5 Z"/><text text-anchor="middle" pointer-events="none" font-size="8px" fill="#000000" x="68.23826900731447" y="3" transform="rotate(180 68.23826900731447 0)" font-family="Helvetica Neue, Helvetica, Arial, sans-serif">DEFINES_VAR</text></g><g class="relationship" transform="translate(0.2246731712114668 436.28255966945284) rotate(407.6877490485494)"><path class="b-outline" fill="#A5ABB6" stroke="none" d="M 25 0.5 L 38.741559552651296 0.5 L 38.741559552651296 -0.5 L 25 -0.5 Z M 99.7181220526513 0.5 L 113.45968160530259 0.5 L 113.45968160530259 3.5 L 120.45968160530259 0 L 113.45968160530259 -3.5 L 113.45968160530259 -0.5 L 99.7181220526513 -0.5 Z"/><text text-anchor="middle" pointer-events="none" font-size="8px" fill="#000000" x="69.2298408026513" y="3" font-family="Helvetica Neue, Helvetica, Arial, sans-serif">DEFINES_VAR</text></g><g class="relationship" transform="translate(0.2246731712114668 436.28255966945284) rotate(349.3856398813497)"><path class="b-outline" fill="#A5ABB6" stroke="none" d="M 25 0.5 L 38.595378896851685 0.5 L 38.595378896851685 -0.5 L 25 -0.5 Z M 99.57194139685168 0.5 L 113.16732029370337 0.5 L 113.16732029370337 3.5 L 120.16732029370337 0 L 113.16732029370337 -3.5 L 113.16732029370337 -0.5 L 99.57194139685168 -0.5 Z"/><text text-anchor="middle" pointer-events="none" font-size="8px" fill="#000000" x="69.08366014685168" y="3" font-family="Helvetica Neue, Helvetica, Arial, sans-serif">DEFINES_VAR</text></g><g class="relationship" transform="translate(0.2246731712114668 436.28255966945284) rotate(287.85372369641084)"><path class="b-outline" fill="#A5ABB6" stroke="none" d="M 25 0.5 L 38.432284349210136 0.5 L 38.432284349210136 -0.5 L 25 -0.5 Z M 99.40884684921014 0.5 L 112.84113119842027 0.5 L 112.84113119842027 3.5 L 119.84113119842027 0 L 112.84113119842027 -3.5 L 112.84113119842027 -0.5 L 99.40884684921014 -0.5 Z"/><text text-anchor="middle" pointer-events="none" font-size="8px" fill="#000000" x="68.92056559921014" y="3" font-family="Helvetica Neue, Helvetica, Arial, sans-serif">DEFINES_VAR</text></g><g class="relationship" transform="translate(410.6095327637737 402.28600631628683) rotate(316.0898628582542)"><path class="b-outline" fill="#A5ABB6" stroke="none" d="M 25 0.5 L 37.79133756051212 0.5 L 37.79133756051212 -0.5 L 25 -0.5 Z M 98.76790006051212 0.5 L 111.55923762102424 0.5 L 111.55923762102424 3.5 L 118.55923762102424 0 L 111.55923762102424 -3.5 L 111.55923762102424 -0.5 L 98.76790006051212 -0.5 Z"/><text text-anchor="middle" pointer-events="none" font-size="8px" fill="#000000" x="68.27961881051212" y="3" font-family="Helvetica Neue, Helvetica, Arial, sans-serif">DEFINES_VAR</text></g><g class="relationship" transform="translate(410.6095327637737 402.28600631628683) rotate(231.40000339674555)"><path class="b-outline" fill="#A5ABB6" stroke="none" d="M 25 0.5 L 37.83921347682343 0.5 L 37.83921347682343 -0.5 L 25 -0.5 Z M 98.81577597682343 0.5 L 111.65498945364686 0.5 L 111.65498945364686 3.5 L 118.65498945364686 0 L 111.65498945364686 -3.5 L 111.65498945364686 -0.5 L 98.81577597682343 -0.5 Z"/><text text-anchor="middle" pointer-events="none" font-size="8px" fill="#000000" x="68.32749472682343" y="3" transform="rotate(180 68.32749472682343 0)" font-family="Helvetica Neue, Helvetica, Arial, sans-serif">DEFINES_VAR</text></g><g class="relationship" transform="translate(460.2116281212201 -47.83876105565055) rotate(209.48164538759943)"><path class="b-outline" fill="#A5ABB6" stroke="none" d="M 25 0.5 L 39.560743826850214 0.5 L 39.560743826850214 -0.5 L 25 -0.5 Z M 100.53730632685021 0.5 L 115.09805015370043 0.5 L 115.09805015370043 3.5 L 122.09805015370043 0 L 115.09805015370043 -3.5 L 115.09805015370043 -0.5 L 100.53730632685021 -0.5 Z"/><text text-anchor="middle" pointer-events="none" font-size="8px" fill="#000000" x="70.04902507685021" y="3" transform="rotate(180 70.04902507685021 0)" font-family="Helvetica Neue, Helvetica, Arial, sans-serif">DEFINES_VAR</text></g><g class="relationship" transform="translate(460.2116281212201 -47.83876105565055) rotate(465.5498348748453)"><path class="b-outline" fill="#A5ABB6" stroke="none" d="M 25 0.5 L 38.21872880562995 0.5 L 38.21872880562995 -0.5 L 25 -0.5 Z M 99.19529130562995 0.5 L 112.4140201112599 0.5 L 112.4140201112599 3.5 L 119.4140201112599 0 L 112.4140201112599 -3.5 L 112.4140201112599 -0.5 L 99.19529130562995 -0.5 Z"/><text text-anchor="middle" pointer-events="none" font-size="8px" fill="#000000" x="68.70701005562995" y="3" transform="rotate(180 68.70701005562995 0)" font-family="Helvetica Neue, Helvetica, Arial, sans-serif">DEFINES_VAR</text></g><g class="relationship" transform="translate(460.2116281212201 -47.83876105565055) rotate(369.2059399237081)"><path class="b-outline" fill="#A5ABB6" stroke="none" d="M 25 0.5 L 38.41464515159697 0.5 L 38.41464515159697 -0.5 L 25 -0.5 Z M 99.39120765159697 0.5 L 112.80585280319394 0.5 L 112.80585280319394 3.5 L 119.80585280319394 0 L 112.80585280319394 -3.5 L 112.80585280319394 -0.5 L 99.39120765159697 -0.5 Z"/><text text-anchor="middle" pointer-events="none" font-size="8px" fill="#000000" x="68.90292640159697" y="3" font-family="Helvetica Neue, Helvetica, Arial, sans-serif">DEFINES_VAR</text></g><g class="relationship" transform="translate(460.2116281212201 -47.83876105565055) rotate(302.5105037152409)"><path class="b-outline" fill="#A5ABB6" stroke="none" d="M 25 0.5 L 39.41888151377607 0.5 L 39.41888151377607 -0.5 L 25 -0.5 Z M 100.39544401377607 0.5 L 114.81432552755214 0.5 L 114.81432552755214 3.5 L 121.81432552755214 0 L 114.81432552755214 -3.5 L 114.81432552755214 -0.5 L 100.39544401377607 -0.5 Z"/><text text-anchor="middle" pointer-events="none" font-size="8px" fill="#000000" x="69.90716276377607" y="3" font-family="Helvetica Neue, Helvetica, Arial, sans-serif">DEFINES_VAR</text></g><g class="relationship" transform="translate(460.2116281212201 -47.83876105565055) rotate(525.7292987007615)"><path class="b-outline" fill="#A5ABB6" stroke="none" d="M 25 0.5 L 39.789876437966214 0.5 L 39.789876437966214 -0.5 L 25 -0.5 Z M 100.76643893796621 0.5 L 115.55631537593243 0.5 L 115.55631537593243 3.5 L 122.55631537593243 0 L 115.55631537593243 -3.5 L 115.55631537593243 -0.5 L 100.76643893796621 -0.5 Z"/><text text-anchor="middle" pointer-events="none" font-size="8px" fill="#000000" x="70.27815768796621" y="3" transform="rotate(180 70.27815768796621 0)" font-family="Helvetica Neue, Helvetica, Arial, sans-serif">DEFINES_VAR</text></g><g class="relationship" transform="translate(460.2116281212201 -47.83876105565055) rotate(256.87933422241906)"><path class="b-outline" fill="#A5ABB6" stroke="none" d="M 25 0.5 L 39.4737868556181 0.5 L 39.4737868556181 -0.5 L 25 -0.5 Z M 100.4503493556181 0.5 L 114.9241362112362 0.5 L 114.9241362112362 3.5 L 121.9241362112362 0 L 114.9241362112362 -3.5 L 114.9241362112362 -0.5 L 100.4503493556181 -0.5 Z"/><text text-anchor="middle" pointer-events="none" font-size="8px" fill="#000000" x="69.9620681056181" y="3" transform="rotate(180 69.9620681056181 0)" font-family="Helvetica Neue, Helvetica, Arial, sans-serif">DEFINES_VAR</text></g><g class="relationship" transform="translate(269.35349945245076 -458.51707495029564) rotate(481.6134247810148)"><path class="b-outline" fill="#A5ABB6" stroke="none" d="M 25 0.5 L 38.46975075785819 0.5 L 38.46975075785819 -0.5 L 25 -0.5 Z M 99.4463132578582 0.5 L 112.91606401571639 0.5 L 112.91606401571639 3.5 L 119.91606401571639 0 L 112.91606401571639 -3.5 L 112.91606401571639 -0.5 L 99.4463132578582 -0.5 Z"/><text text-anchor="middle" pointer-events="none" font-size="8px" fill="#000000" x="68.9580320078582" y="3" transform="rotate(180 68.9580320078582 0)" font-family="Helvetica Neue, Helvetica, Arial, sans-serif">DEFINES_VAR</text></g><g class="relationship" transform="translate(269.35349945245076 -458.51707495029564) rotate(239.93953097992886)"><path class="b-outline" fill="#A5ABB6" stroke="none" d="M 25 0.5 L 37.906269752241286 0.5 L 37.906269752241286 -0.5 L 25 -0.5 Z M 98.88283225224129 0.5 L 111.78910200448257 0.5 L 111.78910200448257 3.5 L 118.78910200448257 0 L 111.78910200448257 -3.5 L 111.78910200448257 -0.5 L 98.88283225224129 -0.5 Z"/><text text-anchor="middle" pointer-events="none" font-size="8px" fill="#000000" x="68.39455100224129" y="3" transform="rotate(180 68.39455100224129 0)" font-family="Helvetica Neue, Helvetica, Arial, sans-serif">DEFINES_VAR</text></g><g class="relationship" transform="translate(269.35349945245076 -458.51707495029564) rotate(181.42260934082714)"><path class="b-outline" fill="#A5ABB6" stroke="none" d="M 25 0.5 L 38.51545946178206 0.5 L 38.51545946178206 -0.5 L 25 -0.5 Z M 99.49202196178206 0.5 L 113.00748142356412 0.5 L 113.00748142356412 3.5 L 120.00748142356412 0 L 113.00748142356412 -3.5 L 113.00748142356412 -0.5 L 99.49202196178206 -0.5 Z"/><text text-anchor="middle" pointer-events="none" font-size="8px" fill="#000000" x="69.00374071178206" y="3" transform="rotate(180 69.00374071178206 0)" font-family="Helvetica Neue, Helvetica, Arial, sans-serif">DEFINES_VAR</text></g><g class="relationship" transform="translate(-108.76054379564287 -393.03702631592614) rotate(260.84528822681256)"><path class="b-outline" fill="#A5ABB6" stroke="none" d="M 25 0.5 L 37.85478313701316 0.5 L 37.85478313701316 -0.5 L 25 -0.5 Z M 98.83134563701316 0.5 L 111.68612877402632 0.5 L 111.68612877402632 3.5 L 118.68612877402632 0 L 111.68612877402632 -3.5 L 111.68612877402632 -0.5 L 98.83134563701316 -0.5 Z"/><text text-anchor="middle" pointer-events="none" font-size="8px" fill="#000000" x="68.34306438701316" y="3" transform="rotate(180 68.34306438701316 0)" font-family="Helvetica Neue, Helvetica, Arial, sans-serif">DEFINES_VAR</text></g><g class="relationship" transform="translate(-108.76054379564287 -393.03702631592614) rotate(194.25542266285106)"><path class="b-outline" fill="#A5ABB6" stroke="none" d="M 25 0.5 L 37.9650623549382 0.5 L 37.9650623549382 -0.5 L 25 -0.5 Z M 98.9416248549382 0.5 L 111.9066872098764 0.5 L 111.9066872098764 3.5 L 118.9066872098764 0 L 111.9066872098764 -3.5 L 111.9066872098764 -0.5 L 98.9416248549382 -0.5 Z"/><text text-anchor="middle" pointer-events="none" font-size="8px" fill="#000000" x="68.4533436049382" y="3" transform="rotate(180 68.4533436049382 0)" font-family="Helvetica Neue, Helvetica, Arial, sans-serif">DEFINES_VAR</text></g><g class="relationship" transform="translate(-248.2830630838999 -61.52910994014344) rotate(332.4287834118393)"><path class="b-outline" fill="#A5ABB6" stroke="none" d="M 25 0.5 L 41.64558755017818 0.5 L 41.64558755017818 -0.5 L 25 -0.5 Z M 102.62215005017818 0.5 L 119.26773760035636 0.5 L 119.26773760035636 3.5 L 126.26773760035636 0 L 119.26773760035636 -3.5 L 119.26773760035636 -0.5 L 102.62215005017818 -0.5 Z"/><text text-anchor="middle" pointer-events="none" font-size="8px" fill="#000000" x="72.13386880017818" y="3" font-family="Helvetica Neue, Helvetica, Arial, sans-serif">DEFINES_VAR</text></g><g class="relationship" transform="translate(-462.28383886051563 -105.96804313574278) rotate(293.6025548864817)"><path class="b-outline" fill="#A5ABB6" stroke="none" d="M 25 0.5 L 39.52663019755414 0.5 L 39.52663019755414 -0.5 L 25 -0.5 Z M 100.50319269755414 0.5 L 115.02982289510828 0.5 L 115.02982289510828 3.5 L 122.02982289510828 0 L 115.02982289510828 -3.5 L 115.02982289510828 -0.5 L 100.50319269755414 -0.5 Z"/><text text-anchor="middle" pointer-events="none" font-size="8px" fill="#000000" x="70.01491144755414" y="3" font-family="Helvetica Neue, Helvetica, Arial, sans-serif">DEFINES_VAR</text></g><g class="relationship" transform="translate(-462.28383886051563 -105.96804313574278) rotate(222.83556527319553)"><path class="b-outline" fill="#A5ABB6" stroke="none" d="M 25 0.5 L 39.458841293253755 0.5 L 39.458841293253755 -0.5 L 25 -0.5 Z M 100.43540379325376 0.5 L 114.89424508650751 0.5 L 114.89424508650751 3.5 L 121.89424508650751 0 L 114.89424508650751 -3.5 L 114.89424508650751 -0.5 L 100.43540379325376 -0.5 Z"/><text text-anchor="middle" pointer-events="none" font-size="8px" fill="#000000" x="69.94712254325376" y="3" transform="rotate(180 69.94712254325376 0)" font-family="Helvetica Neue, Helvetica, Arial, sans-serif">DEFINES_VAR</text></g><g class="relationship" transform="translate(-517.5718486575503 86.5508689567109) rotate(313.12400083948546)"><path class="b-outline" fill="#A5ABB6" stroke="none" d="M 25 0.5 L 35.31286996623568 0.5 L 35.31286996623568 -0.5 L 25 -0.5 Z M 96.28943246623568 0.5 L 106.60230243247136 0.5 L 106.60230243247136 3.5 L 113.60230243247136 0 L 106.60230243247136 -3.5 L 106.60230243247136 -0.5 L 96.28943246623568 -0.5 Z"/><text text-anchor="middle" pointer-events="none" font-size="8px" fill="#000000" x="65.80115121623568" y="3" font-family="Helvetica Neue, Helvetica, Arial, sans-serif">DEFINES_VAR</text></g><g class="relationship" transform="translate(-456.63945066645044 203.92984988823815) rotate(451.98883742266065)"><path class="b-outline" fill="#A5ABB6" stroke="none" d="M 25 0.5 L 41.92888921200945 0.5 L 41.92888921200945 -0.5 L 25 -0.5 Z M 102.90545171200945 0.5 L 119.8343409240189 0.5 L 119.8343409240189 3.5 L 126.8343409240189 0 L 119.8343409240189 -3.5 L 119.8343409240189 -0.5 L 102.90545171200945 -0.5 Z"/><text text-anchor="middle" pointer-events="none" font-size="8px" fill="#000000" x="72.41717046200945" y="3" transform="rotate(180 72.41717046200945 0)" font-family="Helvetica Neue, Helvetica, Arial, sans-serif">DEFINES_VAR</text></g><g class="relationship" transform="translate(-203.27850086990782 27.35541238325341) rotate(489.96133589510794)"><path class="b-outline" fill="#A5ABB6" stroke="none" d="M 25 0.5 L 40.90865810384136 0.5 L 40.90865810384136 -0.5 L 25 -0.5 Z M 101.88522060384136 0.5 L 117.79387870768272 0.5 L 117.79387870768272 3.5 L 124.79387870768272 0 L 117.79387870768272 -3.5 L 117.79387870768272 -0.5 L 101.88522060384136 -0.5 Z"/><text text-anchor="middle" pointer-events="none" font-size="8px" fill="#000000" x="71.39693935384136" y="3" transform="rotate(180 71.39693935384136 0)" font-family="Helvetica Neue, Helvetica, Arial, sans-serif">DEFINES_VAR</text></g><g class="relationship" transform="translate(-359.6420030857752 62.79228487766667) rotate(382.0707920878044)"><path class="b-outline" fill="#A5ABB6" stroke="none" d="M 25 0.5 L 51.041194305392565 0.5 L 51.041194305392565 -0.5 L 25 -0.5 Z M 112.01775680539257 0.5 L 138.05895111078513 0.5 L 138.05895111078513 3.5 L 145.05895111078513 0 L 138.05895111078513 -3.5 L 138.05895111078513 -0.5 L 112.01775680539257 -0.5 Z"/><text text-anchor="middle" pointer-events="none" font-size="8px" fill="#000000" x="81.52947555539257" y="3" font-family="Helvetica Neue, Helvetica, Arial, sans-serif">DEFINES_VAR</text></g><g class="relationship" transform="translate(-359.6420030857752 62.79228487766667) rotate(449.6710430827614)"><path class="b-outline" fill="#A5ABB6" stroke="none" d="M 25 0.5 L 45.55048612838219 0.5 L 45.55048612838219 -0.5 L 25 -0.5 Z M 106.52704862838219 0.5 L 127.07753475676438 0.5 L 127.07753475676438 3.5 L 134.07753475676438 0 L 127.07753475676438 -3.5 L 127.07753475676438 -0.5 L 106.52704862838219 -0.5 Z"/><text text-anchor="middle" pointer-events="none" font-size="8px" fill="#000000" x="76.03876737838219" y="3" font-family="Helvetica Neue, Helvetica, Arial, sans-serif">DEFINES_VAR</text></g><g class="relationship" transform="translate(-359.6420030857752 62.79228487766667) rotate(311.85189507778676)"><path class="b-outline" fill="#A5ABB6" stroke="none" d="M 25 0.5 L 56.58042320413793 0.5 L 56.58042320413793 -0.5 L 25 -0.5 Z M 103.32261070413793 0.5 L 134.90303390827586 0.5 L 134.90303390827586 3.5 L 141.90303390827586 0 L 134.90303390827586 -3.5 L 134.90303390827586 -0.5 L 103.32261070413793 -0.5 Z"/><text text-anchor="middle" pointer-events="none" font-size="8px" fill="#000000" x="79.95151695413793" y="3" font-family="Helvetica Neue, Helvetica, Arial, sans-serif">CONTAINS</text></g><g class="relationship" transform="translate(-359.6420030857752 62.79228487766667) rotate(238.69158584957137)"><path class="b-outline" fill="#A5ABB6" stroke="none" d="M 25 0.5 L 71.89048122023112 0.5 L 71.89048122023112 -0.5 L 25 -0.5 Z M 118.63266872023112 0.5 L 165.52314994046225 0.5 L 165.52314994046225 3.5 L 172.52314994046225 0 L 165.52314994046225 -3.5 L 165.52314994046225 -0.5 L 118.63266872023112 -0.5 Z"/><text text-anchor="middle" pointer-events="none" font-size="8px" fill="#000000" x="95.26157497023112" y="3" transform="rotate(180 95.26157497023112 0)" font-family="Helvetica Neue, Helvetica, Arial, sans-serif">CONTAINS</text></g><g class="relationship" transform="translate(-359.6420030857752 62.79228487766667) rotate(531.4447160666117)"><path class="b-outline" fill="#A5ABB6" stroke="none" d="M 25 0.5 L 52.98237586742762 0.5 L 52.98237586742762 -0.5 L 25 -0.5 Z M 99.72456336742762 0.5 L 127.70693923485524 0.5 L 127.70693923485524 3.5 L 134.70693923485524 0 L 127.70693923485524 -3.5 L 127.70693923485524 -0.5 L 99.72456336742762 -0.5 Z"/><text text-anchor="middle" pointer-events="none" font-size="8px" fill="#000000" x="76.35346961742762" y="3" transform="rotate(180 76.35346961742762 0)" font-family="Helvetica Neue, Helvetica, Arial, sans-serif">CONTAINS</text></g><g class="relationship" transform="translate(-359.6420030857752 62.79228487766667) rotate(484.49897613224846)"><path class="b-outline" fill="#A5ABB6" stroke="none" d="M 25 0.5 L 58.75646766319093 0.5 L 58.75646766319093 -0.5 L 25 -0.5 Z M 105.49865516319093 0.5 L 139.25512282638186 0.5 L 139.25512282638186 3.5 L 146.25512282638186 0 L 139.25512282638186 -3.5 L 139.25512282638186 -0.5 L 105.49865516319093 -0.5 Z"/><text text-anchor="middle" pointer-events="none" font-size="8px" fill="#000000" x="82.12756141319093" y="3" transform="rotate(180 82.12756141319093 0)" font-family="Helvetica Neue, Helvetica, Arial, sans-serif">CONTAINS</text></g><g class="relationship" transform="translate(-359.6420030857752 62.79228487766667) rotate(347.23068175087496)"><path class="b-outline" fill="#A5ABB6" stroke="none" d="M 25 0.5 L 53.29329478599031 0.5 L 53.29329478599031 -0.5 L 25 -0.5 Z M 100.03548228599031 0.5 L 128.32877707198062 0.5 L 128.32877707198062 3.5 L 135.32877707198062 0 L 128.32877707198062 -3.5 L 128.32877707198062 -0.5 L 100.03548228599031 -0.5 Z"/><text text-anchor="middle" pointer-events="none" font-size="8px" fill="#000000" x="76.66438853599031" y="3" font-family="Helvetica Neue, Helvetica, Arial, sans-serif">CONTAINS</text></g></g><g class="layer nodes"><g class="node" aria-label="graph-node0" transform="translate(0.2246731712114668,436.28255966945284)" style="touch-action: none; -webkit-tap-highlight-color: rgba(0, 0, 0, 0);"><circle class="b-outline" cx="0" cy="0" r="25" fill="#C990C0" stroke="#b261a5" stroke-width="2px"/><text class="caption" text-anchor="middle" pointer-events="none" x="0" y="5" font-size="10px" fill="#FFFFFF" font-family="Helvetica Neue, Helvetica, Arial, sans-serif"> Keploy.t…</text></g><g class="node" aria-label="graph-node7" transform="translate(-72.71684700053689,559.8343771214745)" style="touch-action: none; -webkit-tap-highlight-color: rgba(0, 0, 0, 0);"><circle class="b-outline" cx="0" cy="0" r="25" fill="#F16667" stroke="#eb2728" stroke-width="2px"/><text class="caption" text-anchor="middle" pointer-events="none" x="0" y="5" font-size="10px" fill="#FFFFFF" font-family="Helvetica Neue, Helvetica, Arial, sans-serif"> keploy</text></g><g class="node" aria-label="graph-node8" transform="translate(98.14386095058008,543.8481286836349)" style="touch-action: none; -webkit-tap-highlight-color: rgba(0, 0, 0, 0);"><circle class="b-outline" cx="0" cy="0" r="25" fill="#F16667" stroke="#eb2728" stroke-width="2px"/><text class="caption" text-anchor="middle" pointer-events="none" x="0" y="5" font-size="10px" fill="#FFFFFF" font-family="Helvetica Neue, Helvetica, Arial, sans-serif"> options</text></g><g class="node" aria-label="graph-node9" transform="translate(142.90806655706956,409.5430732654262)" style="touch-action: none; -webkit-tap-highlight-color: rgba(0, 0, 0, 0);"><circle class="b-outline" cx="0" cy="0" r="25" fill="#F16667" stroke="#eb2728" stroke-width="2px"/><text class="caption" text-anchor="middle" pointer-events="none" x="0" y="5" font-size="10px" fill="#FFFFFF" font-family="Helvetica Neue, Helvetica, Arial, sans-serif"> cmd</text></g><g class="node" aria-label="graph-node10" transform="translate(44.631217169856,298.4166388008987)" style="touch-action: none; -webkit-tap-highlight-color: rgba(0, 0, 0, 0);"><circle class="b-outline" cx="0" cy="0" r="25" fill="#F16667" stroke="#eb2728" stroke-width="2px"/><text class="caption" text-anchor="middle" pointer-events="none" x="0" y="5" font-size="10px" fill="#FFFFFF" font-family="Helvetica Neue, Helvetica, Arial, sans-serif"> timeOut</text></g><g class="node" aria-label="graph-node11" transform="translate(410.6095327637737,402.28600631628683)" style="touch-action: none; -webkit-tap-highlight-color: rgba(0, 0, 0, 0);"><circle class="b-outline" cx="0" cy="0" r="25" fill="#C990C0" stroke="#b261a5" stroke-width="2px"/><text class="caption" text-anchor="middle" pointer-events="none" x="0" y="5" font-size="10px" fill="#FFFFFF" font-family="Helvetica Neue, Helvetica, Arial, sans-serif"> server.js</text></g><g class="node" aria-label="graph-node14" transform="translate(514.0336873910419,302.72346845206494)" style="touch-action: none; -webkit-tap-highlight-color: rgba(0, 0, 0, 0);"><circle class="b-outline" cx="0" cy="0" r="25" fill="#F16667" stroke="#eb2728" stroke-width="2px"/><text class="caption" text-anchor="middle" pointer-events="none" x="0" y="5" font-size="10px" fill="#FFFFFF" font-family="Helvetica Neue, Helvetica, Arial, sans-serif"> app</text></g><g class="node" aria-label="graph-node15" transform="translate(320.98612253395976,290.0166857798826)" style="touch-action: none; -webkit-tap-highlight-color: rgba(0, 0, 0, 0);"><circle class="b-outline" cx="0" cy="0" r="25" fill="#F16667" stroke="#eb2728" stroke-width="2px"/><text class="caption" text-anchor="middle" pointer-events="none" x="0" y="5" font-size="10px" fill="#FFFFFF" font-family="Helvetica Neue, Helvetica, Arial, sans-serif"> PORT</text></g><g class="node" aria-label="graph-node16" transform="translate(460.2116281212201,-47.83876105565055)" style="touch-action: none; -webkit-tap-highlight-color: rgba(0, 0, 0, 0);"><circle class="b-outline" cx="0" cy="0" r="25" fill="#C990C0" stroke="#b261a5" stroke-width="2px"/><text class="caption" text-anchor="middle" pointer-events="none" x="0" y="5" font-size="10px" fill="#FFFFFF" font-family="Helvetica Neue, Helvetica, Arial, sans-serif"> app.js</text></g><g class="node" aria-label="graph-node28" transform="translate(332.1608045858192,-120.23228943302831)" style="touch-action: none; -webkit-tap-highlight-color: rgba(0, 0, 0, 0);"><circle class="b-outline" cx="0" cy="0" r="25" fill="#F16667" stroke="#eb2728" stroke-width="2px"/><text class="caption" text-anchor="middle" pointer-events="none" x="0" y="5" font-size="10px" fill="#FFFFFF" font-family="Helvetica Neue, Helvetica, Arial, sans-serif"> express</text></g><g class="node" aria-label="graph-node29" transform="translate(421.49763404380457,91.28936646452138)" style="touch-action: none; -webkit-tap-highlight-color: rgba(0, 0, 0, 0);"><circle class="b-outline" cx="0" cy="0" r="25" fill="#F16667" stroke="#eb2728" stroke-width="2px"/><text class="caption" text-anchor="middle" pointer-events="none" x="0" y="5" font-size="10px" fill="#FFFFFF" font-family="Helvetica Neue, Helvetica, Arial, sans-serif"> product…</text></g><g class="node" aria-label="graph-node30" transform="translate(603.1523358815085,-24.672210361857303)" style="touch-action: none; -webkit-tap-highlight-color: rgba(0, 0, 0, 0);"><circle class="b-outline" cx="0" cy="0" r="25" fill="#F16667" stroke="#eb2728" stroke-width="2px"/><text class="caption" text-anchor="middle" pointer-events="none" x="0" y="5" font-size="10px" fill="#FFFFFF" font-family="Helvetica Neue, Helvetica, Arial, sans-serif"> connect…</text></g><g class="node" aria-label="graph-node31" transform="translate(539.1176059870221,-171.6462440167043)" style="touch-action: none; -webkit-tap-highlight-color: rgba(0, 0, 0, 0);"><circle class="b-outline" cx="0" cy="0" r="25" fill="#F16667" stroke="#eb2728" stroke-width="2px"/><text class="caption" text-anchor="middle" pointer-events="none" x="0" y="5" font-size="10px" fill="#FFFFFF" font-family="Helvetica Neue, Helvetica, Arial, sans-serif"> mongoose</text></g><g class="node" aria-label="graph-node32" transform="translate(317.2086188309106,-11.465617924525695)" style="touch-action: none; -webkit-tap-highlight-color: rgba(0, 0, 0, 0);"><circle class="b-outline" cx="0" cy="0" r="25" fill="#F16667" stroke="#eb2728" stroke-width="2px"/><text class="caption" text-anchor="middle" pointer-events="none" x="0" y="5" font-size="10px" fill="#FFFFFF" font-family="Helvetica Neue, Helvetica, Arial, sans-serif"> Product</text></g><g class="node" aria-label="graph-node33" transform="translate(426.8594683670273,-190.92731839392516)" style="touch-action: none; -webkit-tap-highlight-color: rgba(0, 0, 0, 0);"><circle class="b-outline" cx="0" cy="0" r="25" fill="#F16667" stroke="#eb2728" stroke-width="2px"/><text class="caption" text-anchor="middle" pointer-events="none" x="0" y="5" font-size="10px" fill="#FFFFFF" font-family="Helvetica Neue, Helvetica, Arial, sans-serif"> app</text></g><g class="node" aria-label="graph-node34" transform="translate(269.35349945245076,-458.51707495029564)" style="touch-action: none; -webkit-tap-highlight-color: rgba(0, 0, 0, 0);"><circle class="b-outline" cx="0" cy="0" r="25" fill="#C990C0" stroke="#b261a5" stroke-width="2px"/><text class="caption" text-anchor="middle" pointer-events="none" x="0" y="5" font-size="10px" fill="#FFFFFF" font-family="Helvetica Neue, Helvetica, Arial, sans-serif"> product.r…</text></g><g class="node" aria-label="graph-node41" transform="translate(193.39060623108855,-335.10595525985957)" style="touch-action: none; -webkit-tap-highlight-color: rgba(0, 0, 0, 0);"><circle class="b-outline" cx="0" cy="0" r="25" fill="#F16667" stroke="#eb2728" stroke-width="2px"/><text class="caption" text-anchor="middle" pointer-events="none" x="0" y="5" font-size="10px" fill="#FFFFFF" font-family="Helvetica Neue, Helvetica, Arial, sans-serif"> express</text></g><g class="node" aria-label="graph-node42" transform="translate(197.3275668681497,-582.9661444149453)" style="touch-action: none; -webkit-tap-highlight-color: rgba(0, 0, 0, 0);"><circle class="b-outline" cx="0" cy="0" r="25" fill="#F16667" stroke="#eb2728" stroke-width="2px"/><text class="caption" text-anchor="middle" pointer-events="none" x="0" y="5" font-size="10px" fill="#FFFFFF" font-family="Helvetica Neue, Helvetica, Arial, sans-serif"> router</text></g><g class="node" aria-label="graph-node43" transform="translate(124.39071356483316,-462.1171272424199)" style="touch-action: none; -webkit-tap-highlight-color: rgba(0, 0, 0, 0);"><circle class="b-outline" cx="0" cy="0" r="25" fill="#F16667" stroke="#eb2728" stroke-width="2px"/><text class="caption" text-anchor="middle" pointer-events="none" x="0" y="5" font-size="10px" fill="#FFFFFF" font-family="Helvetica Neue, Helvetica, Arial, sans-serif"> Product</text></g><g class="node" aria-label="graph-node44" transform="translate(-108.76054379564287,-393.03702631592614)" style="touch-action: none; -webkit-tap-highlight-color: rgba(0, 0, 0, 0);"><circle class="b-outline" cx="0" cy="0" r="25" fill="#C990C0" stroke="#b261a5" stroke-width="2px"/><text class="caption" text-anchor="middle" pointer-events="none" x="0" y="5" font-size="10px" fill="#FFFFFF" font-family="Helvetica Neue, Helvetica, Arial, sans-serif"> connect.js</text></g><g class="node" aria-label="graph-node47" transform="translate(-131.6211328995765,-534.8929287940648)" style="touch-action: none; -webkit-tap-highlight-color: rgba(0, 0, 0, 0);"><circle class="b-outline" cx="0" cy="0" r="25" fill="#F16667" stroke="#eb2728" stroke-width="2px"/><text class="caption" text-anchor="middle" pointer-events="none" x="0" y="5" font-size="10px" fill="#FFFFFF" font-family="Helvetica Neue, Helvetica, Arial, sans-serif"> mongoose</text></g><g class="node" aria-label="graph-node48" transform="translate(-248.23599996798956,-428.47333184058544)" style="touch-action: none; -webkit-tap-highlight-color: rgba(0, 0, 0, 0);"><circle class="b-outline" cx="0" cy="0" r="25" fill="#F16667" stroke="#eb2728" stroke-width="2px"/><text class="caption" text-anchor="middle" pointer-events="none" x="0" y="5" font-size="10px" fill="#FFFFFF" font-family="Helvetica Neue, Helvetica, Arial, sans-serif"> connect…</text></g><g class="node" aria-label="graph-node51" transform="translate(-248.2830630838999,-61.52910994014344)" style="touch-action: none; -webkit-tap-highlight-color: rgba(0, 0, 0, 0);"><circle class="b-outline" cx="0" cy="0" r="25" fill="#57C7E3" stroke="#23b3d7" stroke-width="2px"/><text class="caption" text-anchor="middle" pointer-events="none" x="0" y="5" font-size="10px" fill="#2A2C34" font-family="Helvetica Neue, Helvetica, Arial, sans-serif"> getProd…</text></g><g class="node" aria-label="graph-node54" transform="translate(-114.19386288106018,-131.54350008740553)" style="touch-action: none; -webkit-tap-highlight-color: rgba(0, 0, 0, 0);"><circle class="b-outline" cx="0" cy="0" r="25" fill="#F16667" stroke="#eb2728" stroke-width="2px"/><text class="caption" text-anchor="middle" pointer-events="none" x="0" y="5" font-size="10px" fill="#FFFFFF" font-family="Helvetica Neue, Helvetica, Arial, sans-serif"> products</text></g><g class="node" aria-label="graph-node55" transform="translate(-462.28383886051563,-105.96804313574278)" style="touch-action: none; -webkit-tap-highlight-color: rgba(0, 0, 0, 0);"><circle class="b-outline" cx="0" cy="0" r="25" fill="#57C7E3" stroke="#23b3d7" stroke-width="2px"/><text class="caption" text-anchor="middle" pointer-events="none" x="0" y="5" font-size="10px" fill="#2A2C34" font-family="Helvetica Neue, Helvetica, Arial, sans-serif"> updateP…</text></g><g class="node" aria-label="graph-node61" transform="translate(-403.41458367797884,-240.69806805528427)" style="touch-action: none; -webkit-tap-highlight-color: rgba(0, 0, 0, 0);"><circle class="b-outline" cx="0" cy="0" r="25" fill="#F16667" stroke="#eb2728" stroke-width="2px"/><text class="caption" text-anchor="middle" pointer-events="none" x="0" y="5" font-size="10px" fill="#FFFFFF" font-family="Helvetica Neue, Helvetica, Arial, sans-serif"> product</text></g><g class="node" aria-label="graph-node62" transform="translate(-570.0025599430649,-205.84094420442557)" style="touch-action: none; -webkit-tap-highlight-color: rgba(0, 0, 0, 0);"><circle class="b-outline" cx="0" cy="0" r="25" fill="#F16667" stroke="#eb2728" stroke-width="2px"/><text class="caption" text-anchor="middle" pointer-events="none" x="0" y="5" font-size="10px" fill="#FFFFFF" font-family="Helvetica Neue, Helvetica, Arial, sans-serif"> updated…</text></g><g class="node" aria-label="graph-node63" transform="translate(-517.5718486575503,86.5508689567109)" style="touch-action: none; -webkit-tap-highlight-color: rgba(0, 0, 0, 0);"><circle class="b-outline" cx="0" cy="0" r="25" fill="#57C7E3" stroke="#23b3d7" stroke-width="2px"/><text class="caption" text-anchor="middle" pointer-events="none" x="0" y="5" font-size="10px" fill="#2A2C34" font-family="Helvetica Neue, Helvetica, Arial, sans-serif"> deletePr…</text></g><g class="node" aria-label="graph-node65" transform="translate(-422.82614579403514,-14.61162423360522)" style="touch-action: none; -webkit-tap-highlight-color: rgba(0, 0, 0, 0);"><circle class="b-outline" cx="0" cy="0" r="25" fill="#F16667" stroke="#eb2728" stroke-width="2px"/><text class="caption" text-anchor="middle" pointer-events="none" x="0" y="5" font-size="10px" fill="#FFFFFF" font-family="Helvetica Neue, Helvetica, Arial, sans-serif"> product</text></g><g class="node" aria-label="graph-node66" transform="translate(-456.63945066645044,203.92984988823815)" style="touch-action: none; -webkit-tap-highlight-color: rgba(0, 0, 0, 0);"><circle class="b-outline" cx="0" cy="0" r="25" fill="#57C7E3" stroke="#23b3d7" stroke-width="2px"/><text class="caption" text-anchor="middle" pointer-events="none" x="0" y="5" font-size="10px" fill="#2A2C34" font-family="Helvetica Neue, Helvetica, Arial, sans-serif"> getProd…</text></g><g class="node" aria-label="graph-node67" transform="translate(-461.90882973410885,355.67272691405617)" style="touch-action: none; -webkit-tap-highlight-color: rgba(0, 0, 0, 0);"><circle class="b-outline" cx="0" cy="0" r="25" fill="#F16667" stroke="#eb2728" stroke-width="2px"/><text class="caption" text-anchor="middle" pointer-events="none" x="0" y="5" font-size="10px" fill="#FFFFFF" font-family="Helvetica Neue, Helvetica, Arial, sans-serif"> product</text></g><g class="node" aria-label="graph-node68" transform="translate(-203.27850086990782,27.35541238325341)" style="touch-action: none; -webkit-tap-highlight-color: rgba(0, 0, 0, 0);"><circle class="b-outline" cx="0" cy="0" r="25" fill="#57C7E3" stroke="#23b3d7" stroke-width="2px"/><text class="caption" text-anchor="middle" pointer-events="none" x="0" y="5" font-size="10px" fill="#2A2C34" font-family="Helvetica Neue, Helvetica, Arial, sans-serif"> createPr…</text></g><g class="node" aria-label="graph-node70" transform="translate(-299.48669389568687,142.16912973883075)" style="touch-action: none; -webkit-tap-highlight-color: rgba(0, 0, 0, 0);"><circle class="b-outline" cx="0" cy="0" r="25" fill="#F16667" stroke="#eb2728" stroke-width="2px"/><text class="caption" text-anchor="middle" pointer-events="none" x="0" y="5" font-size="10px" fill="#FFFFFF" font-family="Helvetica Neue, Helvetica, Arial, sans-serif"> product</text></g><g class="node" aria-label="graph-node49" transform="translate(-359.6420030857752,62.79228487766667)" style="touch-action: none; -webkit-tap-highlight-color: rgba(0, 0, 0, 0);"><circle class="b-outline" cx="0" cy="0" r="25" fill="#C990C0" stroke="#b261a5" stroke-width="2px"/><text class="caption" text-anchor="middle" pointer-events="none" x="0" y="5" font-size="10px" fill="#FFFFFF" font-family="Helvetica Neue, Helvetica, Arial, sans-serif"> product.…</text></g><g class="node" aria-label="graph-node71" transform="translate(-202.0449209097975,126.69225782381545)" style="touch-action: none; -webkit-tap-highlight-color: rgba(0, 0, 0, 0);"><circle class="b-outline" cx="0" cy="0" r="25" fill="#F16667" stroke="#eb2728" stroke-width="2px"/><text class="caption" text-anchor="middle" pointer-events="none" x="0" y="5" font-size="10px" fill="#FFFFFF" font-family="Helvetica Neue, Helvetica, Arial, sans-serif"> Product</text></g><g class="node" aria-label="graph-node72" transform="translate(-358.7286833197073,221.86719776871462)" style="touch-action: none; -webkit-tap-highlight-color: rgba(0, 0, 0, 0);"><circle class="b-outline" cx="0" cy="0" r="25" fill="#F16667" stroke="#eb2728" stroke-width="2px"/><text class="caption" text-anchor="middle" pointer-events="none" x="0" y="5" font-size="10px" fill="#FFFFFF" font-family="Helvetica Neue, Helvetica, Arial, sans-serif"> products</text></g></g></svg>